<svg width="487" height="205" viewBox="0 0 487 205" fill="none" xmlns="http://www.w3.org/2000/svg">
    <path d="M61.8089 109.872V112.411C61.8089 114.02 60.502 115.323 58.8849 115.323H9.93162C7.78035 115.323 6.36355 113.091 7.28716 111.158L56.2365 8.66731C57.5766 5.86133 61.8089 6.81166 61.8089 9.91855V69.7734M42.191 95.8411V92.5894C42.191 90.9799 43.498 89.6767 45.1151 89.6767H94.0684C96.2197 89.6767 97.6364 91.9085 96.7128 93.8423L47.7635 196.333C46.4234 199.139 42.191 198.188 42.191 195.081V135.227" stroke="#fff" stroke-width="12" stroke-linecap="square" stroke-linejoin="round"/>
    <path d="M180.6 157V48.4H160.65V157H180.6ZM221.909 157V83.2H201.959V157H221.909ZM199.559 59.05C199.559 65.65 205.109 71.2 211.859 71.2C218.759 71.2 224.159 65.65 224.159 59.05C224.159 52.15 218.759 46.6 211.859 46.6C205.109 46.6 199.559 52.15 199.559 59.05ZM263.217 114.55C263.217 106 268.317 99.25 277.017 99.25C286.617 99.25 290.667 105.7 290.667 113.95V157H310.617V110.5C310.617 94.3 302.217 81.25 283.917 81.25C275.967 81.25 267.117 84.7 262.617 92.35V83.2H243.267V157H263.217V114.55ZM402.415 83.2H376.315L350.815 110.65V48.4H330.865V157H350.815V137.5L359.065 128.8L378.565 157H403.015L372.865 114.25L402.415 83.2Z" fill="#fff"/>
    <path d="M440.154 186.1L486.504 83.2H465.204L447.054 126.4L427.404 83.2H405.054L436.404 147.7L419.004 186.1H440.154Z" fill="#fff" fill-opacity="0.6"/>
</svg>