<svg width="487" height="205" viewBox="0 0 487 205" fill="none" xmlns="http://www.w3.org/2000/svg">
    <g clip-path="url(#clip0_2352_342)">
        <path d="M61.8089 109.872V112.411C61.8089 114.02 60.502 115.323 58.8849 115.323H9.93162C7.78035 115.323 6.36355 113.091 7.28716 111.158L56.2365 8.66731C57.5766 5.86133 61.8089 6.81166 61.8089 9.91855V69.7734M42.191 95.8411V92.5894C42.191 90.9799 43.498 89.6767 45.1151 89.6767H94.0684C96.2197 89.6767 97.6364 91.9085 96.7128 93.8423L47.7635 196.333C46.4234 199.139 42.191 198.188 42.191 195.081V135.227" stroke="white" stroke-width="12" stroke-linecap="square" stroke-linejoin="round"/>
        <path d="M180.6 157V48.3996H160.65V157H180.6ZM221.909 157V83.1996H201.959V157H221.909ZM199.559 59.0496C199.559 65.6496 205.109 71.1996 211.859 71.1996C218.759 71.1996 224.159 65.6496 224.159 59.0496C224.159 52.1496 218.759 46.5996 211.859 46.5996C205.109 46.5996 199.559 52.1496 199.559 59.0496ZM263.217 114.55C263.217 106 268.317 99.2496 277.017 99.2496C286.617 99.2496 290.667 105.7 290.667 113.95V157H310.617V110.5C310.617 94.2996 302.217 81.2496 283.917 81.2496C275.967 81.2496 267.117 84.6996 262.617 92.3496V83.1996H243.267V157H263.217V114.55ZM402.415 83.1996H376.315L350.815 110.65V48.3996H330.865V157H350.815V137.5L359.065 128.8L378.565 157H403.015L372.865 114.25L402.415 83.1996Z" fill="white"/>
        <path d="M440.154 186.1L486.504 83.2002H465.204L447.054 126.4L427.404 83.2002H405.054L436.404 147.7L419.004 186.1H440.154Z" fill="white" fill-opacity="0.6"/>
        <path d="M388.98 37.495V27.54H394.04C397.34 27.54 399.595 29.41 399.595 32.545C399.595 35.57 397.34 37.495 394.04 37.495H388.98ZM394.92 44.975C402.84 44.975 408.285 39.86 408.285 32.49C408.285 25.23 402.84 20.005 394.92 20.005H380.235V59H388.925V44.975H394.92ZM432.452 59H442.022L434.102 43.215C438.887 41.51 441.802 37.495 441.802 32.215C441.802 25.285 436.852 20.005 429.152 20.005H413.697V59H422.387V44.48H425.467L432.452 59ZM422.387 37V27.54H427.502C431.077 27.54 433.002 29.355 433.002 32.27C433.002 35.02 431.077 37 427.502 37H422.387ZM454.729 39.475C454.729 31.335 460.559 27.65 466.004 27.65C471.394 27.65 477.224 31.335 477.224 39.475C477.224 47.615 471.394 51.245 466.004 51.245C460.559 51.245 454.729 47.615 454.729 39.475ZM445.709 39.53C445.709 51.85 455.004 59.825 466.004 59.825C476.949 59.825 486.244 51.85 486.244 39.53C486.244 27.155 476.949 19.18 466.004 19.18C455.004 19.18 445.709 27.155 445.709 39.53Z" fill="white" fill-opacity="0.5"/>
    </g>
    <defs>
        <clipPath id="clip0_2352_342">
            <rect width="487" height="205" fill="white"/>
        </clipPath>
    </defs>
</svg>
