<svg width="24" height="10" viewBox="0 0 24 10" xmlns="http://www.w3.org/2000/svg">
    <path d="M8.208 3C7.71355 3 7.2302 3.14662 6.81907 3.42133C6.40795 3.69603 6.08752 4.08648 5.8983 4.54329C5.70908 5.00011 5.65957 5.50277 5.75604 5.98772C5.8525 6.47268 6.0906 6.91813 6.44023 7.26777C6.78986 7.6174 7.23532 7.8555 7.72027 7.95196C8.20523 8.04842 8.70789 7.99892 9.16471 7.8097C9.62152 7.62048 10.012 7.30005 10.2867 6.88892C10.5614 6.4778 10.708 5.99445 10.708 5.5V5.5C10.7021 4.83878 10.4368 4.2063 9.96927 3.73872C9.5017 3.27115 8.86922 3.00587 8.208 3ZM8.208 7.475C7.81986 7.47746 7.43971 7.36478 7.11562 7.15119C6.79153 6.93761 6.53805 6.63271 6.38724 6.27507C6.23642 5.91742 6.19505 5.52309 6.26835 5.14193C6.34165 4.76077 6.52633 4.40991 6.79903 4.13371C7.07174 3.85751 7.42022 3.66838 7.80041 3.59023C8.18061 3.51208 8.57544 3.54843 8.93497 3.69467C9.29451 3.84092 9.60261 4.09049 9.8203 4.41184C10.038 4.73318 10.1555 5.11186 10.158 5.5V5.5C10.158 6.0195 9.95339 6.5181 9.5884 6.88777C9.22341 7.25744 8.72746 7.46842 8.208 7.475V7.475ZM13.5805 3C13.086 3 12.6027 3.14662 12.1916 3.42133C11.7804 3.69603 11.46 4.08648 11.2708 4.54329C11.0816 5.00011 11.0321 5.50277 11.1285 5.98772C11.225 6.47268 11.4631 6.91813 11.8127 7.26777C12.1624 7.6174 12.6078 7.8555 13.0928 7.95196C13.5777 8.04842 14.0804 7.99892 14.5372 7.8097C14.994 7.62048 15.3845 7.30005 15.6592 6.88892C15.9339 6.4778 16.0805 5.99445 16.0805 5.5V5.5C16.0805 4.83696 15.8171 4.20107 15.3483 3.73223C14.8794 3.26339 14.2435 3 13.5805 3V3ZM13.5805 7.475C13.1924 7.47746 12.8122 7.36478 12.4881 7.15119C12.164 6.93761 11.9105 6.63271 11.7597 6.27507C11.6089 5.91742 11.5675 5.52309 11.6408 5.14193C11.7141 4.76077 11.8988 4.40991 12.1715 4.13371C12.4442 3.85751 12.7927 3.66838 13.1729 3.59023C13.5531 3.51208 13.9479 3.54843 14.3075 3.69467C14.667 3.84092 14.9751 4.09049 15.1928 4.41184C15.4105 4.73318 15.528 5.11186 15.5305 5.5C15.5348 5.75845 15.4875 6.01516 15.3914 6.25509C15.2952 6.49503 15.1522 6.71336 14.9705 6.89729C14.7889 7.08123 14.5724 7.22707 14.3338 7.32627C14.0951 7.42547 13.839 7.47603 13.5805 7.475V7.475ZM3.908 4.5C3.67495 4.46226 3.43657 4.47391 3.20831 4.53421C2.98005 4.5945 2.76701 4.70209 2.583 4.85V3.525H4.833C4.908 3.525 4.958 3.5 4.958 3.275C4.958 3.05 4.858 3.05 4.808 3.05H2.333C2.27333 3.05 2.2161 3.07371 2.1739 3.1159C2.13171 3.1581 2.108 3.21533 2.108 3.275V5.475C2.108 5.6 2.183 5.625 2.308 5.65C2.3458 5.66747 2.38829 5.67205 2.42895 5.66301C2.4696 5.65398 2.50616 5.63184 2.533 5.6V5.6C2.67287 5.40166 2.86115 5.24241 3.07995 5.13739C3.29874 5.03237 3.54077 4.98507 3.783 5C4.06497 5.0352 4.32764 5.16182 4.53081 5.36048C4.73398 5.55914 4.86647 5.81889 4.908 6.1C4.94615 6.43122 4.85199 6.76412 4.646 7.02628C4.44001 7.28845 4.13885 7.4587 3.808 7.5H3.658C3.40195 7.49638 3.15292 7.41575 2.94334 7.2686C2.73377 7.12145 2.57335 6.91461 2.483 6.675C2.458 6.6 2.408 6.55 2.208 6.625C2.008 6.7 1.983 6.75 2.008 6.825C2.17078 7.25983 2.49769 7.61344 2.91843 7.80979C3.33918 8.00613 3.82017 8.02955 4.258 7.875C4.69284 7.71222 5.04644 7.38531 5.24279 6.96457C5.43913 6.54382 5.46255 6.06283 5.308 5.625C5.19807 5.32848 5.00984 5.06729 4.76333 4.8692C4.51681 4.67111 4.22123 4.54352 3.908 4.5ZM17.7805 3.025C17.4495 3.06311 17.1441 3.22186 16.9227 3.47089C16.7014 3.71993 16.5795 4.0418 16.5805 4.375V6.6C16.5805 6.725 16.6805 6.75 16.8305 6.75C16.9805 6.75 17.0805 6.725 17.0805 6.6V4.375C17.0761 4.16907 17.1475 3.96871 17.2812 3.812C17.4149 3.65529 17.6015 3.55315 17.8055 3.525C17.9178 3.51366 18.0313 3.52556 18.1388 3.55997C18.2463 3.59438 18.3456 3.65055 18.4305 3.725C18.5165 3.79959 18.5855 3.89172 18.633 3.99522C18.6804 4.09871 18.7051 4.21116 18.7055 4.325C18.6889 4.49572 18.6286 4.6593 18.5305 4.8C18.4515 4.90969 18.3456 4.99721 18.223 5.05413C18.1004 5.11105 17.9653 5.13546 17.8305 5.125V5.125C17.7305 5.125 17.6555 5.125 17.6305 5.35C17.6305 5.5 17.6305 5.575 17.7555 5.6C18.0068 5.62564 18.26 5.57327 18.4805 5.45C18.679 5.34887 18.8491 5.19994 18.9757 5.01664C19.1023 4.83334 19.1812 4.62143 19.2055 4.4C19.2198 4.22865 19.1999 4.05617 19.1468 3.89261C19.0938 3.72905 19.0087 3.5777 18.8965 3.44738C18.7843 3.31706 18.6473 3.21038 18.4935 3.13357C18.3397 3.05676 18.1721 3.01135 18.0005 3C17.929 3.02008 17.8547 3.02852 17.7805 3.025V3.025ZM21.0555 4.325L21.9555 3.425C21.9805 3.4 22.0555 3.325 21.9055 3.15C21.8849 3.1221 21.8586 3.0988 21.8285 3.08158C21.7984 3.06437 21.765 3.05361 21.7305 3.05V3.05C21.7112 3.05037 21.6921 3.05505 21.6748 3.0637C21.6575 3.07235 21.6424 3.08475 21.6305 3.1L20.7305 4L19.8305 3.075C19.7555 3 19.6805 3.025 19.5555 3.125C19.4305 3.225 19.4305 3.325 19.5055 3.4L20.4055 4.3L19.5005 5.225C19.4742 5.25256 19.4568 5.28741 19.4505 5.325C19.4512 5.36021 19.4607 5.3947 19.4781 5.42528C19.4956 5.45586 19.5205 5.48156 19.5505 5.5C19.5994 5.54764 19.6596 5.58205 19.7255 5.6C19.7708 5.59437 19.8138 5.57715 19.8505 5.55L20.7505 4.65L21.6505 5.55C21.6624 5.56525 21.6775 5.57765 21.6948 5.5863C21.7121 5.59495 21.7312 5.59963 21.7505 5.6V5.6C21.785 5.59639 21.8184 5.58563 21.8485 5.56842C21.8786 5.5512 21.9049 5.5279 21.9255 5.5C22.0005 5.4 22.0255 5.3 21.9505 5.25L21.0555 4.325Z"/>
</svg>
