<svg width="20" height="20" viewBox="0 0 20 20" xmlns="http://www.w3.org/2000/svg">
    <path d="M10.1398 15.228C9.01301 13.8149 8.35207 12.5768 8.1301 11.515C7.91187 10.6584 7.99628 9.97432 8.37458 9.46033C8.77165 8.86755 9.3613 8.58117 10.1398 8.58117C10.9183 8.58117 11.5111 8.86755 11.9081 9.46721C12.2795 9.97557 12.374 10.659 12.1457 11.5219C11.9012 12.6031 11.2403 13.8405 10.136 15.2349L10.1398 15.228ZM18.1417 16.1791C17.9885 17.2177 17.2819 18.0775 16.3083 18.4977C14.4324 19.3149 12.5728 18.0125 10.9833 16.2441C13.6114 12.9513 14.0998 10.3883 12.9699 8.73062C12.3089 7.77954 11.3579 7.31745 10.1398 7.31745C7.68739 7.31745 6.33926 9.39217 6.87013 11.8021C7.17652 13.1083 7.99691 14.5896 9.29939 16.2473C8.48214 17.1496 7.70677 17.7942 7.0227 18.1913C6.49183 18.4777 5.98409 18.654 5.49824 18.6959C3.26719 19.0279 1.51512 16.8657 2.30987 14.6315C2.42054 14.3414 2.6419 13.8142 3.01645 12.9964L3.03583 12.9507C4.25703 10.3032 5.73897 7.29369 7.43915 3.95588L7.48479 3.8452L7.96689 2.91727C8.34457 2.23007 8.49777 1.92368 9.09367 1.546C9.38381 1.37342 9.73522 1.28525 10.1323 1.28525C10.927 1.28525 11.5454 1.74797 11.8131 2.12252C11.9431 2.32136 12.0995 2.58836 12.2983 2.91727L12.7641 3.82582L12.8292 3.95588C14.5293 7.29432 16.0144 10.297 17.2287 12.9507L17.2481 12.9732L17.6946 13.9893L17.9585 14.6278C18.1604 15.1361 18.2061 15.6439 18.1373 16.1747L18.1417 16.1791ZM19.1578 14.1894C19.0046 13.7011 18.7376 13.1277 18.4087 12.4436V12.4173C16.8354 9.0789 15.3735 6.07625 13.986 3.37998L13.8947 3.24617C12.9048 1.21709 12.1976 -0.000976562 10.1398 -0.000976562C8.10758 -0.000976562 7.24468 1.41219 6.36177 3.2493L6.29361 3.38311C4.90296 6.07625 3.44415 9.08266 1.87404 12.4205V12.4661L1.4082 13.4822C1.23561 13.9024 1.14432 14.1206 1.12181 14.1888C-0.00496654 17.2827 2.31675 19.999 5.12431 19.999C5.14682 19.999 5.23499 19.999 5.34254 19.9796H5.65519C7.11399 19.8008 8.61532 18.8722 10.1398 17.2146C11.6643 18.8722 13.1718 19.8002 14.6275 19.9796H14.937C15.0477 19.999 15.1359 19.999 15.1584 19.999C17.966 20.0021 20.2845 17.2827 19.1578 14.1888V14.1894Z"/>
</svg>
