<svg width="24" height="24" viewBox="0 0 24 24" xmlns="http://www.w3.org/2000/svg">
    <path d="M21.3877 19.7262C21.2886 19.6992 21.1684 19.7142 21.0303 19.7652C19.1802 20.6122 17.3812 21.2159 15.6332 21.5733C11.858 22.3421 8.17883 21.9397 4.5988 20.3689C3.60468 19.9304 2.22313 19.1916 0.454139 18.1464C0.408557 18.1104 0.35295 18.0894 0.29496 18.0863C0.234892 18.0833 0.183835 18.0894 0.135781 18.1134C0.0877267 18.1374 0.051686 18.1674 0.0246556 18.2065C-0.00237484 18.2455 -0.00838141 18.2996 0.0126422 18.3687C0.0306625 18.4347 0.0757132 18.5098 0.150798 18.5909C0.463149 18.9573 0.850585 19.3478 1.3101 19.7622C1.76962 20.1767 2.3793 20.6452 3.13916 21.1678C3.89901 21.6904 4.69491 22.1559 5.52084 22.5614C6.34977 22.9668 7.31085 23.3092 8.40709 23.5855C9.50332 23.8618 10.5996 24 11.6928 24C12.78 24 13.8372 23.8889 14.8613 23.6726C15.8885 23.4534 16.7535 23.1951 17.4593 22.8948C18.1621 22.5974 18.8108 22.264 19.4055 21.9036C20.0001 21.5432 20.4386 21.2369 20.7239 20.9936C21.0093 20.7473 21.2135 20.5551 21.3306 20.411C21.4688 20.2398 21.5379 20.0926 21.5379 19.9635C21.5409 19.8283 21.4868 19.7502 21.3877 19.7262V19.7262ZM12.4496 7.08797C11.9931 7.12702 11.4435 7.21111 10.7978 7.33725C10.152 7.46039 9.55438 7.61657 9.00176 7.79977C8.44913 7.98298 7.8845 8.23827 7.31085 8.56263C6.7342 8.887 6.24465 9.25942 5.8392 9.67388C5.43374 10.0883 5.10337 10.6079 4.84508 11.2356C4.58679 11.8603 4.45764 12.5481 4.45764 13.299C4.45764 14.1129 4.5988 14.8367 4.88713 15.4764C5.17245 16.1161 5.55388 16.6177 6.03442 16.9901C6.51195 17.3625 7.05556 17.6539 7.65624 17.8671C8.25692 18.0803 8.89363 18.1764 9.55438 18.1494C10.2151 18.1224 10.8608 18.0203 11.4886 17.8401C12.1133 17.6629 12.7019 17.3775 13.2485 16.9901C13.7951 16.6027 14.2427 16.1432 14.594 15.6176C14.7232 15.8158 14.8373 15.963 14.9394 16.0591L15.2007 16.3264C15.3749 16.5036 15.6422 16.7649 16.0026 17.1102C16.36 17.4556 16.7264 17.792 17.0929 18.1224L20.2284 15.122L20.0482 14.9748C19.919 14.8757 19.7659 14.7346 19.5917 14.5454C19.4175 14.3592 19.2433 14.1519 19.0751 13.9297C18.9039 13.7074 18.7567 13.4461 18.6336 13.1518C18.5105 12.8575 18.4474 12.5721 18.4474 12.2958V4.40295C18.4474 4.09961 18.3903 3.77224 18.2762 3.41784C18.1591 3.06645 17.9548 2.68202 17.6545 2.26755C17.3542 1.85308 16.9817 1.48067 16.5372 1.1563C16.0897 0.831936 15.4951 0.555625 14.7472 0.333375C14.0024 0.111125 13.1674 0 12.2484 0C11.3084 0 10.4344 0.111125 9.61745 0.327368C8.80353 0.546615 8.10675 0.837943 7.52409 1.20435C6.94444 1.57077 6.44588 1.99424 6.03141 2.47779C5.61695 2.96133 5.3076 3.4659 5.10637 3.99149C4.90515 4.51708 4.80303 5.04868 4.80303 5.58628L8.8636 5.94369C9.02879 5.45113 9.25104 5.02465 9.52434 4.65824C9.80065 4.29183 10.0619 4.02753 10.2992 3.86235C10.5395 3.69716 10.7978 3.56501 11.0711 3.4659C11.3474 3.36679 11.5336 3.31573 11.6297 3.30372C11.7258 3.29471 11.8009 3.2917 11.858 3.2917C12.6599 3.2917 13.2155 3.52897 13.5278 4.0005C13.7231 4.28582 13.8192 4.71831 13.8192 5.30096V7.00088C13.3627 7.0189 12.9061 7.04893 12.4496 7.08797V7.08797ZM13.8222 11.6501C13.8222 12.1487 13.7561 12.6022 13.627 13.0016C13.3506 13.8756 12.8251 14.4252 12.0532 14.6475C11.3804 14.8457 10.7407 14.7466 10.134 14.3531C9.4883 13.9327 9.16694 13.338 9.16694 12.5721C9.16694 11.9745 9.31711 11.4639 9.61745 11.0374C9.91779 10.6139 10.3172 10.2956 10.8188 10.0853C11.3204 9.87511 11.8099 9.72494 12.2905 9.63784C12.768 9.54774 13.2816 9.49368 13.8222 9.47566V11.6501V11.6501ZM23.8895 18.2245C23.7604 18.0623 23.412 17.9572 22.8413 17.9031C22.2707 17.8491 21.7751 17.8521 21.3486 17.9152C20.8891 17.9692 20.4146 18.1014 19.928 18.3176C19.4385 18.5308 19.2253 18.711 19.2793 18.8522L19.3003 18.8913L19.3274 18.9123L19.3694 18.9183H19.5076C19.5316 18.9183 19.5616 18.9153 19.6037 18.9123C19.6457 18.9093 19.6848 18.9033 19.7208 18.9003C19.7569 18.8973 19.8079 18.8913 19.874 18.8882C19.9371 18.8852 19.9971 18.8762 20.0542 18.8672C20.0632 18.8672 20.1653 18.8582 20.3635 18.8402C20.5618 18.8222 20.7059 18.8102 20.793 18.8011C20.8801 18.7921 21.0273 18.7831 21.2285 18.7741C21.4297 18.7651 21.5919 18.7651 21.7121 18.7741C21.8322 18.7831 21.9673 18.7951 22.1205 18.8072C22.2737 18.8192 22.3968 18.8462 22.4929 18.8882C22.589 18.9273 22.6611 18.9783 22.7062 19.0414C22.8623 19.2396 22.8323 19.6781 22.6161 20.3599C22.3998 21.0417 22.1956 21.5853 22.0034 21.9877C21.9193 22.1589 21.9193 22.264 22.0034 22.3091C22.0875 22.3541 22.2046 22.3121 22.3608 22.189C22.8293 21.8226 23.2197 21.2699 23.5351 20.5281C23.7183 20.0896 23.8505 19.6331 23.9285 19.1556C24.0006 18.678 23.9886 18.3687 23.8895 18.2245V18.2245Z"/>
</svg>
