<svg width="24" height="29" viewBox="0 0 24 29" xmlns="http://www.w3.org/2000/svg">
    <path d="M20.0652 15.097C20.0515 12.7554 21.1124 10.9906 23.2549 9.68927C22.0567 7.97253 20.2438 7.02833 17.8541 6.84635C15.5914 6.66781 13.1159 8.16481 12.2094 8.16481C11.2515 8.16481 9.06094 6.90816 7.33734 6.90816C3.78026 6.96309 0 9.74421 0 15.4026C0 17.0747 0.305579 18.8017 0.916738 20.5803C1.73391 22.9219 4.67983 28.6592 7.75279 28.5665C9.35966 28.5288 10.4961 27.4266 12.5871 27.4266C14.6163 27.4266 15.667 28.5665 17.4592 28.5665C20.5597 28.5219 23.224 23.3064 24 20.9579C19.8421 18.9974 20.0652 15.2172 20.0652 15.097V15.097ZM16.4567 4.62489C18.1974 2.55794 18.0395 0.676395 17.988 0C16.4498 0.0892704 14.6712 1.04721 13.6584 2.22489C12.5425 3.48841 11.8867 5.05064 12.0275 6.81202C13.6893 6.93906 15.2069 6.08412 16.4567 4.62489V4.62489Z"/>
</svg>
