<svg width="7" height="4" viewBox="0 0 7 4" fill="none" xmlns="http://www.w3.org/2000/svg">
    <path d="M3.51251 0.00023818C3.6183 3.14713e-05 3.72082 0.0368762 3.80228 0.104377L6.51896 2.36827C6.61142 2.44513 6.66957 2.55556 6.68061 2.67529C6.69165 2.79502 6.65467 2.91423 6.57782 3.00669C6.50097 3.09916 6.39053 3.1573 6.2708 3.16834C6.15107 3.17938 6.03187 3.14241 5.9394 3.06555L3.51251 1.0371L1.08561 2.99311C1.0393 3.03072 0.986006 3.0588 0.928802 3.07575C0.871599 3.0927 0.81161 3.09818 0.752283 3.09186C0.692956 3.08555 0.635461 3.06758 0.583103 3.03898C0.530746 3.01037 0.484557 2.9717 0.447192 2.92519C0.405727 2.87863 0.374322 2.82402 0.354947 2.76476C0.335571 2.7055 0.328642 2.64288 0.334593 2.58082C0.340544 2.51877 0.359247 2.4586 0.38953 2.40411C0.419813 2.34961 0.461025 2.30196 0.510582 2.26413L3.22726 0.0772104C3.31106 0.0203795 3.41149 -0.0067215 3.51251 0.00023818Z" fill="black" fill-opacity="0.4"/>
</svg>