<svg width="22" height="22" viewBox="0 0 22 22" xmlns="http://www.w3.org/2000/svg">
<path fill-rule="evenodd" clip-rule="evenodd" d="M0.900113 1.0977L1.85729 4.04683C3.64804 3.4001 8.15049 2.27908 11.7653 2.79647C12.1965 2.85971 13.0674 3.09828 13.1019 3.54669C13.1364 3.99509 12.5012 4.44063 12.1792 4.60734C8.30747 6.5484 0.507479 8.93138 0.0291707 14.0411C-0.25367 17.0627 1.58997 18.9851 2.54714 19.5686C7.33438 23.1357 20.7862 23.5588 21.018 15.4467C21.1284 11.5835 15.8613 9.05403 13.214 8.2722C15.0076 7.43287 18.4466 5.24718 17.8533 3.21901C17.26 1.19083 14.5133 0.396351 13.214 0.252632C10.9059 -0.063552 5.21171 -0.337194 0.900113 1.0977ZM5.55663 14.8776C5.7084 12.1595 9.11514 10.1693 10.7995 9.51394C14.1449 10.4422 17.0429 14.3484 14.6541 17.5335C13.3851 19.2255 10.6359 19.4307 8.76446 18.9908C7.63195 18.7522 5.40487 17.5956 5.55663 14.8776Z"/>
</svg>
