<svg width="16" height="12" viewBox="0 0 16 12" xmlns="http://www.w3.org/2000/svg">
    <path d="M15.3333 0.666626H0.666679C0.298476 0.666626 0 0.965103 0 1.33327C0 1.70143 0.298476 1.99995 0.666679 1.99995H15.3333C15.7015 1.99995 16 1.70147 16 1.33327C16 0.965064 15.7015 0.666626 15.3333 0.666626Z" />
    <path d="M11.3333 5.33337H0.666679C0.298476 5.33337 0 5.63185 0 6.00005C0 6.36825 0.298476 6.66672 0.666679 6.66672H11.3333C11.7015 6.66672 12 6.36825 12 6.00005C12 5.63185 11.7015 5.33337 11.3333 5.33337Z"/>
    <path d="M15.3333 10H0.666679C0.298476 10 0 10.2985 0 10.6667C0 11.0349 0.298476 11.3334 0.666679 11.3334H15.3333C15.7015 11.3334 16 11.0349 16 10.6667C16 10.2985 15.7015 10 15.3333 10Z"/>
</svg>
