<svg width="24" height="24" viewBox="0 0 24 24" xmlns="http://www.w3.org/2000/svg">
    <path d="M14.068 11.313C13.6599 11.313 13.2557 11.3935 12.8788 11.5499C12.5018 11.7062 12.1593 11.9354 11.871 12.2243C11.5827 12.5131 11.3542 12.856 11.1986 13.2333C11.0429 13.6106 10.9632 14.0149 10.964 14.423C10.964 16.176 12.314 17.508 14.219 17.508L14.203 17.51C15.793 17.51 17.128 16.2 17.128 14.47C17.128 12.67 15.792 11.313 14.066 11.313H14.068ZM0 0V24H24V0H0ZM20.693 20.807H17.117V19.397C16.017 20.477 14.894 20.867 13.402 20.867C11.88 20.867 10.57 20.372 9.472 19.382C8.024 18.107 7.274 16.412 7.274 14.446C7.274 12.646 7.974 11.032 9.284 9.772C10.454 8.626 11.879 8.042 13.469 8.042C14.989 8.042 16.159 8.555 16.999 9.632V4.157L20.692 3.392V3.39L20.694 3.393H20.692V20.807H20.693Z"/>
</svg>
