<svg width="24" height="16" viewBox="0 0 24 16" xmlns="http://www.w3.org/2000/svg">
    <path d="M18.81 0.159973V3.18997H24V0.159973H18.81ZM6.27 4.37997V7.40697H11.459V4.37997H6.269H6.27ZM18.81 4.37997V7.40697H24V4.37997H18.81ZM6.27 8.59397V11.621H11.459V8.59397H6.269H6.27ZM12.541 8.59397V11.621H17.731V8.59397H12.541V8.59397ZM18.811 8.59397V11.621H24V8.59397H18.81H18.811ZM0 12.81V15.839H5.19V12.809H0V12.81ZM6.27 12.81V15.839H11.459V12.809H6.269L6.27 12.81ZM12.541 12.81V15.839H17.731V12.809H12.541V12.81ZM18.811 12.81V15.839H24V12.809H18.81L18.811 12.81Z"/>
</svg>
