<svg width="22" height="15" viewBox="0 0 22 15" xmlns="http://www.w3.org/2000/svg">
    <path d="M16.2809 4.08033V11.5596H19.8003V12.4382H16.2809V14.2H22V4.08033H16.2809ZM9.68185 4.08033V11.5596H13.2002V12.4382H9.68185V14.2H15.3999V4.08033H9.68185V4.08033ZM3.51947 1V4.08033H0V11.5596H5.72024V1H3.51947ZM8.79978 4.08033H6.60011V11.5596H8.79978V4.08033ZM19.8003 9.7989H18.4805V5.83879H19.8003V9.7989ZM3.51947 9.7989H2.19967V5.83879H3.51947V9.7989ZM13.2002 9.7989H11.8804V5.83879H13.2002V9.7989ZM8.79978 1H6.60011V3.19945H8.79978V1Z"/>
</svg>
