<svg width="23" height="15" viewBox="0 0 23 15" xmlns="http://www.w3.org/2000/svg">
    <path d="M16.4542 4.93749H17.8189L19.8079 8.93178L21.7969 4.93652H23L19.3995 12.01H18.0967L19.1323 10.0347L16.4542 4.93749Z"/>
    <path fill-rule="evenodd" clip-rule="evenodd" d="M11.6989 8.3779C11.9312 7.4551 12.9581 7.11135 14.528 7.07359C15.0217 7.05616 15.5879 7.05616 16.038 7.05616V6.92544C16.038 6.06848 15.4998 5.72086 14.5571 5.72086C13.8602 5.72086 13.3521 6.01135 13.294 6.50519H12.0599C12.1916 5.25607 13.5118 4.93652 14.6597 4.93652C15.9254 4.93652 17.1917 5.44711 17.1917 6.86734V9.24938C17.1917 9.58442 17.2014 9.91752 17.2304 10.2225H16.1522C16.1229 9.9767 16.108 9.72936 16.1076 9.48178C15.524 10.1925 14.83 10.4114 13.8621 10.4114C12.4297 10.4114 11.6631 9.65607 11.6631 8.77007C11.6631 8.62482 11.6776 8.49507 11.6989 8.3779ZM12.8836 8.77201C12.8836 8.07773 13.5369 7.88503 14.5968 7.85211L14.5948 7.85017H14.5832C15.0614 7.83468 15.584 7.82887 16.0196 7.82887V7.95475C16.0196 9.04313 15.3662 9.71127 14.1467 9.71127C13.232 9.71127 12.8836 9.22227 12.8836 8.77201Z"/>
    <path fill-rule="evenodd" clip-rule="evenodd" d="M5.84993 3H7.0114V5.93011C7.58245 5.24939 8.36838 5.05282 9.14269 5.05282C10.4397 5.05282 11.8799 5.92817 11.8799 7.81735C11.8799 9.33181 10.6177 10.487 9.11753 10.487C8.27546 10.487 7.47792 10.182 6.98817 9.58646C6.98817 9.81885 6.97365 10.0648 6.94945 10.2972H5.80734L5.84993 3ZM10.6439 7.80089C10.6439 8.97642 9.90249 9.75688 8.82813 9.75688H8.82619H8.79716C7.7228 9.75688 6.98236 8.97642 6.98236 7.80089C6.98236 6.62536 7.73732 5.8449 8.81168 5.8449C9.90055 5.8449 10.6439 6.62536 10.6439 7.80089Z"/>
    <path fill-rule="evenodd" clip-rule="evenodd" d="M5.85768 7.96831H1.18276C1.24568 9.02861 1.9745 9.65317 2.97627 9.65317C3.67121 9.65317 4.28776 9.36268 4.49392 8.75264H5.6941C5.46181 10.0018 4.1358 10.423 2.99369 10.423C0.919497 10.4433 0 9.29393 0 7.75431C0 6.05589 0.950469 4.93652 3.01595 4.93652C4.64975 4.93652 5.85187 5.79445 5.86155 7.65361L5.85768 7.96831ZM2.95981 5.71892C3.80285 5.71892 4.58684 6.12658 4.62942 7.21593H1.20309C1.3202 6.1779 2.04612 5.71892 2.95981 5.71892Z"/>
</svg>
