<svg width="24" height="24" viewBox="0 0 24 24" xmlns="http://www.w3.org/2000/svg">
    <path fill-rule="evenodd" clip-rule="evenodd" d="M0 0H24V24H0V0ZM8.07466 13.3983C7.81037 14.0186 7.38516 14.0536 6.95995 14.0536H5.58453C5.12785 14.0536 4.92918 13.8864 4.92918 13.4963V11.4664C4.92918 11.4664 5.91085 11.4664 6.23898 11.5015C6.50057 11.5329 6.63272 11.5995 6.72981 11.9267L6.8269 12.3861H7.22065L7.18559 11.2093L7.25211 10.0604H6.86196L6.72981 10.5863C6.66419 10.945 6.59766 10.9801 6.23898 11.043C5.7823 11.0772 4.92918 11.0772 4.92918 11.0772V8.65535C4.92918 8.55466 4.92918 8.5232 5.09549 8.5232H7.15502C7.51641 8.5232 7.71238 8.81626 7.84093 9.40419L7.97308 9.86446H8.33177C8.36683 8.55466 8.39829 8 8.39829 8C8.39829 8 7.51641 8.09439 6.99411 8.09439H4.37542L3 8.06652V8.42521L3.45667 8.5214C3.7866 8.58792 3.88368 8.65355 3.88368 8.94661C3.88368 8.94661 3.91874 9.83119 3.91874 11.301C3.91874 12.7744 3.88368 13.659 3.88368 13.659C3.88368 13.9206 3.7866 14.0177 3.45667 14.0842L3 14.1858V14.5418L4.40688 14.5103H6.76487C7.28717 14.5103 8.53134 14.5418 8.53134 14.5418C8.5619 14.2173 8.72552 12.7762 8.76058 12.6126H8.42976L8.07466 13.3983ZM10.5927 13.1691C10.5927 13.8559 10.8219 14.1202 11.2157 14.1202C11.5716 14.1202 11.8359 13.9215 11.933 13.7597L12.1281 13.9889C11.9339 14.4456 11.3793 14.6748 10.8534 14.6748C10.2016 14.6748 9.67303 14.2838 9.67303 13.5322V10.7796H8.89182V10.4524C9.54717 10.3859 10.0353 9.99301 10.2295 8.91335H10.6232V10.2888L11.9681 10.2222L11.9016 10.8461L10.5927 10.7454V13.1691ZM13.5044 11.0412C13.5044 10.6151 13.8973 10.4524 14.291 10.4524C14.6146 10.4524 14.878 10.5845 14.9464 10.7445L15.1756 11.3999L15.5001 11.3684C15.5001 11.0412 15.5343 10.6151 15.5999 10.2888C15.305 10.1566 14.7162 10.0901 14.3225 10.0901C13.4379 10.0901 12.752 10.4865 12.752 11.337C12.752 12.1459 13.3858 12.4254 13.972 12.684C14.4764 12.9064 14.9455 13.1133 14.9455 13.6284C14.9455 13.9871 14.7153 14.2838 14.158 14.2838C13.6357 14.2838 13.4055 14.0195 13.3084 13.7579L13.0477 13.1349H12.716C12.752 13.5628 12.7825 13.9871 12.716 14.3773C12.716 14.3773 13.4055 14.6416 14.0923 14.6416C15.0111 14.6416 15.7626 14.1858 15.7626 13.3318C15.7626 12.5051 15.0813 12.2012 14.4671 11.9272C13.9631 11.7024 13.5044 11.4978 13.5044 11.0412ZM19.2299 10.5189V10.1917L20.1505 10.2222L21 10.1917V10.5171L20.8355 10.6466C20.5083 10.7787 20.475 10.8111 20.3447 11.0745L18.9054 14.4429C18.0532 16.3757 17.1686 16.5393 16.5474 16.5393C16.1546 16.5402 15.8588 16.4395 15.6008 16.2759C15.6915 15.9409 15.7555 15.5213 15.817 15.1181C15.8214 15.0895 15.8257 15.061 15.83 15.0326L16.1896 15.0011L16.3209 15.6871C16.3532 15.8507 16.4503 15.9828 16.7119 15.9828C17.1371 15.9828 17.6945 15.7221 18.2195 14.8061C18.1559 14.6537 18.0586 14.409 17.9379 14.1058C17.6165 13.2982 17.1298 12.0754 16.6769 11.0754C16.5133 10.714 16.4809 10.6816 16.2553 10.6151L16.0871 10.5531V10.2222L17.0724 10.2573L18.2824 10.1917V10.5189L17.9867 10.5854C17.7565 10.616 17.6621 10.7454 17.6621 10.8785C17.6621 10.9127 17.6621 10.9441 17.6936 11.0097C18.0027 11.9001 18.3303 12.784 18.6762 13.6608C18.9998 12.974 19.6237 11.4349 19.7208 11.1734C19.7335 11.1254 19.7456 11.0905 19.7559 11.061C19.774 11.0092 19.7864 10.9736 19.7864 10.9118C19.7864 10.7454 19.6893 10.6484 19.4628 10.5854L19.2299 10.5189Z"/>
</svg>
