<svg width="20" height="20" viewBox="0 0 20 20" xmlns="http://www.w3.org/2000/svg">
<path d="M0 0V20H20V0H0ZM5.91553 6.23047C7.9977 6.23047 9.68507 7.91783 9.68507 10C9.68507 12.0822 7.99768 13.7708 5.91553 13.7708C3.83338 13.7708 2.146 12.0822 2.146 10C2.146 7.91783 3.83337 6.23047 5.91553 6.23047ZM14.0845 6.23047C16.1666 6.23047 17.854 7.91783 17.854 10C17.854 12.0822 16.1666 13.7708 14.0845 13.7708C12.0023 13.7708 10.3149 12.0822 10.3149 10C10.3149 7.91783 12.0023 6.23047 14.0845 6.23047Z"/>
</svg>
