<svg width="20" height="20" viewBox="0 0 20 20" xmlns="http://www.w3.org/2000/svg">
<path d="M6.80858 12.7399C6.86331 12.7542 6.90948 12.7848 6.9428 12.8263L6.94319 12.8267C8.66292 15.3966 10.7486 17.5665 13.1543 19.3246L13.2263 19.3747C13.3132 19.4387 13.3689 19.5405 13.3689 19.6553C13.3689 19.7308 13.3447 19.8007 13.3038 19.8577L13.3045 19.8567C13.2424 19.9439 13.1417 20 13.0279 20C13.0274 20 13.027 20 13.0265 20H7.28624C7.12026 19.9975 6.98237 19.8804 6.94796 19.7245L6.94753 19.7221C6.62253 18.2523 6.43639 16.5641 6.43639 14.8324C6.43639 14.1616 6.46432 13.4973 6.51913 12.8407L6.51335 12.9266C6.53495 12.8151 6.63178 12.7321 6.748 12.7321C6.76956 12.7321 6.79038 12.7349 6.81026 12.7403L6.80858 12.7399ZM9.60062 14.5202C9.5784 14.4846 9.56527 14.4414 9.56527 14.3951C9.56527 14.3114 9.60836 14.2377 9.67355 14.1951L9.67449 14.1945C9.71094 14.1722 9.75508 14.159 9.80227 14.159C9.80926 14.159 9.81617 14.1593 9.82301 14.1599L9.82211 14.1599C11.3509 14.4856 13.1074 14.6721 14.9074 14.6721C16.3222 14.6721 17.7101 14.5569 19.0621 14.3353L18.9146 14.3553C18.9328 14.3518 18.9537 14.3497 18.975 14.3497C19.1417 14.3497 19.2799 14.4717 19.3052 14.6312L19.3055 14.6331C19.3087 14.6508 19.3106 14.6712 19.3106 14.692C19.3106 14.7819 19.2756 14.8636 19.2185 14.9242L19.2186 14.924L15.1457 18.9969C15.083 19.0588 14.9968 19.0971 14.9017 19.0971C14.8309 19.0971 14.7651 19.0759 14.7102 19.0396L14.7115 19.0404C12.7561 17.7493 11.0743 16.2551 9.62875 14.554L9.6007 14.5202H9.60062ZM19.7179 13.0525C18.2462 13.3775 16.5557 13.5637 14.8218 13.5637C14.1502 13.5637 13.4851 13.5358 12.8276 13.481L12.9137 13.4868C12.806 13.4641 12.7263 13.3699 12.7263 13.2571C12.7263 13.24 12.7281 13.2234 12.7316 13.2073L12.7313 13.2088C12.7437 13.1543 12.7731 13.1081 12.8134 13.0745L12.8138 13.0742C15.3885 11.354 17.5616 9.26511 19.3203 6.8546L19.3705 6.78241C19.4332 6.69245 19.5362 6.63432 19.6527 6.63432C19.8408 6.63432 19.9936 6.78569 19.9957 6.97327V12.7138C19.9932 12.8798 19.8761 13.0177 19.7202 13.0521L19.7178 13.0526L19.7179 13.0525ZM14.5029 10.3995C14.4671 10.4227 14.4234 10.4365 14.3765 10.4365C14.2928 10.4365 14.2193 10.3926 14.1778 10.3266L14.1772 10.3257C14.1545 10.2927 14.1409 10.252 14.1409 10.2081C14.1409 10.199 14.1415 10.1901 14.1426 10.1813L14.1425 10.1823C14.4672 8.65765 14.6531 6.90589 14.6531 5.11065C14.6531 3.68169 14.5353 2.28028 14.3088 0.91559L14.3291 1.06375C14.3261 1.04668 14.3244 1.02707 14.3244 1.00704C14.3244 0.837386 14.4475 0.696487 14.6094 0.668909L14.6114 0.668635C14.6282 0.665745 14.6475 0.664143 14.6672 0.664143C14.7601 0.664143 14.8445 0.700589 14.9068 0.760003L14.9067 0.759886L18.984 4.83283C19.0459 4.89553 19.0841 4.98174 19.0841 5.07686C19.0841 5.14764 19.063 5.21346 19.0266 5.26834L19.0274 5.26705C17.7396 7.23327 16.2433 8.92273 14.5365 10.3717L14.5029 10.3995V10.3995ZM13.1829 7.27308C13.1261 7.26354 13.0776 7.23354 13.0443 7.19108L13.0439 7.19061C11.3236 4.61142 9.23476 2.43411 6.82389 0.67094L6.7521 0.620901C6.66073 0.559299 6.60147 0.456174 6.60147 0.33922C6.60147 0.267618 6.6237 0.201173 6.66163 0.146485L6.66089 0.147618C6.72417 0.0583986 6.82686 0.000664065 6.943 0H12.7008C12.7017 0 12.7026 0 12.7035 0C12.8708 0 13.0104 0.118204 13.0434 0.275665L13.0438 0.277931C13.3697 1.74841 13.5563 3.43736 13.5563 5.16994C13.5563 5.84604 13.5279 6.51553 13.4722 7.17725L13.4781 7.09085C13.457 7.20054 13.3618 7.28233 13.2476 7.28233C13.2245 7.28233 13.2022 7.27897 13.1811 7.2728L13.1828 7.27319L13.1829 7.27308ZM10.3822 5.49279C10.4062 5.52986 10.4205 5.57514 10.4205 5.62377C10.4205 5.70573 10.38 5.77823 10.3179 5.82229L10.3171 5.8228C10.2822 5.846 10.2393 5.85987 10.1932 5.85987C10.1817 5.85987 10.1705 5.85901 10.1596 5.85741L10.1608 5.85756C8.62117 5.53373 6.84807 5.34295 5.03232 5.33217L5.024 5.33213C3.62802 5.33889 2.26571 5.46182 0.94016 5.6917L1.08567 5.6708C1.06657 5.67459 1.04457 5.67674 1.02207 5.67674C0.83262 5.67674 0.679065 5.52315 0.679065 5.33373C0.679065 5.24006 0.716604 5.15514 0.777464 5.09326L0.777425 5.0933L4.83736 1.02469C4.90033 0.961215 4.9876 0.921957 5.084 0.921957C5.15369 0.921957 5.21858 0.942465 5.27295 0.977777L5.27158 0.976957C7.22604 2.26821 8.90765 3.76076 10.3545 5.45936L10.3823 5.49279H10.3822ZM7.05608 6.53924C7.16581 6.56022 7.24765 6.65542 7.24765 6.76975C7.24765 6.78655 7.24589 6.80292 7.24253 6.81866L7.2428 6.81714C7.23038 6.87163 7.20104 6.91792 7.16069 6.95143L7.1603 6.95178C4.59326 8.66828 2.42602 10.7512 0.671057 13.1543L0.62094 13.2262C0.559104 13.3159 0.456955 13.3739 0.34129 13.3739C0.268829 13.3739 0.201641 13.3511 0.146602 13.3124L0.147657 13.3131C0.0639065 13.254 0.00781253 13.1606 7.81253e-05 13.0537L0 13.0526V7.29917C0.00906254 7.14143 0.119493 7.01182 0.266759 6.97405L0.26922 6.9735C1.73719 6.64854 3.42333 6.46241 5.15291 6.46241C5.82276 6.46241 6.48616 6.49034 7.14186 6.54507L7.05608 6.53932V6.53924ZM5.48858 9.60484C5.52416 9.58265 5.56737 9.56945 5.61365 9.56945C5.69737 9.56945 5.77104 9.61254 5.81366 9.67773L5.8142 9.67867C5.83639 9.71465 5.84955 9.75824 5.84955 9.80488C5.84955 9.8109 5.84932 9.81684 5.84889 9.82273L5.84893 9.82195C5.52147 11.3495 5.33393 13.1043 5.33393 14.9031C5.33393 16.3287 5.45174 17.7268 5.67815 19.0882L5.65787 18.9405C5.66241 18.9616 5.66502 18.9858 5.66502 19.0106C5.66502 19.1742 5.55198 19.3113 5.39971 19.3482L5.39733 19.3487C5.37447 19.3543 5.34822 19.3576 5.32123 19.3576C5.22631 19.3576 5.14076 19.3175 5.08053 19.2534L5.08037 19.2532L1.00305 15.1585C0.941176 15.0958 0.902894 15.0096 0.902894 14.9145C0.902894 14.8437 0.924066 14.7779 0.960433 14.723L0.959652 14.7243C2.25247 12.7651 3.74959 11.0804 5.45455 9.63301L5.48858 9.60484Z"/>
</svg>
