<svg width="21" height="22" viewBox="0 0 21 22" xmlns="http://www.w3.org/2000/svg">
    <path d="M10.4813 2.76406C6.04688 2.76406 2.46094 6.35938 2.46094 10.7891C2.46094 15.2188 6.04688 18.8187 10.4813 18.8187C14.9156 18.8187 18.5062 15.2234 18.5062 10.7938C18.5062 6.35938 14.9109 2.76406 10.4813 2.76406V2.76406ZM14.2031 14.0141C14.0531 14.6516 13.5703 15.0078 12.9234 15.1297C12.3563 15.2328 11.8828 15.2609 11.4281 14.8953C10.875 14.4266 10.8656 13.6578 11.3625 13.1703C11.7562 12.7953 12.3141 12.7203 13.1437 12.5703C13.2844 12.5469 13.4063 12.5141 13.5047 12.3969C13.6547 12.2281 13.6078 12.3031 13.6078 8.60938C13.6078 8.34688 13.4812 8.27656 13.2141 8.32344C13.0266 8.35625 8.90625 9.125 8.90625 9.125C8.67188 9.17656 8.59219 9.24688 8.59219 9.51406C8.59219 14.9563 8.61563 14.7078 8.53594 15.0687C8.4375 15.4906 8.17969 15.8094 7.8375 15.9875C7.44844 16.2031 6.74063 16.2969 6.36563 16.2313C5.3625 16.0438 5.01094 14.8859 5.69063 14.2203C6.08438 13.8453 6.64219 13.7703 7.47187 13.6203C7.6125 13.5969 7.73438 13.5641 7.83281 13.4469C8.06719 13.1797 7.875 7.49375 7.95469 7.17969C7.97344 7.05781 8.025 6.95469 8.11875 6.87969C8.21719 6.8 8.39062 6.75312 8.43281 6.75312C13.1672 5.8625 13.7438 5.75 13.8281 5.75C14.0953 5.73125 14.25 5.89062 14.25 6.15781C14.2453 14.1547 14.2687 13.7234 14.2031 14.0141V14.0141ZM16.1813 0.5H4.81875C2.15156 0.5 0 2.65156 0 5.31875V16.6813C0 19.3484 2.15156 21.5 4.81875 21.5H16.1813C18.8531 21.5 21 19.3484 21 16.6813V5.31875C21 2.65156 18.8484 0.5 16.1813 0.5ZM10.4813 19.8125C5.49844 19.8125 1.45781 15.7719 1.45781 10.7891C1.45781 5.80625 5.49844 1.76562 10.4813 1.76562C15.4641 1.76562 19.5047 5.80625 19.5047 10.7891C19.5047 15.7719 15.4641 19.8125 10.4813 19.8125Z"/>
</svg>
