<svg width="20" height="20" viewBox="0 0 20 20" fill="none" xmlns="http://www.w3.org/2000/svg">
    <path d="M19.3598 4.37177C19.0712 2.25005 17.2018 0.577995 14.9857 0.253995C14.6119 0.199247 13.1953 0 9.91386 0H9.88935C6.60702 0 5.90282 0.199247 5.52894 0.253995C3.37459 0.569021 1.40719 2.07145 0.929857 4.21827C0.700266 5.27554 0.675764 6.44769 0.718415 7.52291C0.779216 9.06483 0.791013 10.604 0.93258 12.1397C1.03045 13.1597 1.20118 14.1717 1.44349 15.1679C1.89723 17.0078 3.73396 18.5389 5.53348 19.1636C7.46013 19.815 9.53208 19.9232 11.5174 19.4759C11.7358 19.4257 11.9518 19.3673 12.1653 19.3009C12.6472 19.1492 13.2125 18.9796 13.6282 18.6816C13.6339 18.6774 13.6385 18.672 13.6418 18.6658C13.6451 18.6596 13.647 18.6527 13.6472 18.6457V17.1577C13.6471 17.1511 13.6455 17.1447 13.6426 17.1388C13.6396 17.1329 13.6354 17.1277 13.6302 17.1237C13.6249 17.1197 13.6189 17.1168 13.6124 17.1154C13.6059 17.114 13.5992 17.114 13.5928 17.1155C12.3208 17.416 11.0174 17.5666 9.70968 17.5642C7.45915 17.5642 6.85386 16.5079 6.68051 16.0681C6.5412 15.688 6.45272 15.2915 6.41735 14.8888C6.41699 14.882 6.41826 14.8752 6.42102 14.869C6.42378 14.8629 6.42801 14.8574 6.4333 14.8531C6.43861 14.8488 6.44487 14.8458 6.45155 14.8444C6.45824 14.8429 6.46517 14.8431 6.47181 14.8448C7.72256 15.1432 9.00472 15.2939 10.2914 15.2935C10.6008 15.2935 10.9093 15.2935 11.2188 15.2855C12.5129 15.2496 13.8768 15.184 15.15 14.9381C15.1818 14.9318 15.2135 14.9265 15.2407 14.9184C17.249 14.5369 19.1601 13.3397 19.3543 10.3079C19.3616 10.1885 19.3797 9.05764 19.3797 8.93379C19.3806 8.51286 19.5168 5.94779 19.3598 4.37177Z" fill="black"/>
    <path d="M16.2687 11.9381H14.157V6.82235C14.157 5.74534 13.7032 5.19607 12.7803 5.19607C11.7658 5.19607 11.2576 5.84587 11.2576 7.12929V9.92951H9.15861V7.12929C9.15861 5.84587 8.64953 5.19607 7.63497 5.19607C6.7175 5.19607 6.25922 5.74534 6.25831 6.82235V11.9381H4.14844V6.66708C4.14844 5.59007 4.42644 4.73445 4.98241 4.1002C5.55593 3.46746 6.30823 3.14258 7.24203 3.14258C8.32282 3.14258 9.13955 3.55362 9.68403 4.37486L10.2095 5.24724L10.7358 4.37486C11.2803 3.55362 12.097 3.14258 13.176 3.14258C14.1089 3.14258 14.8612 3.46746 15.4365 4.1002C15.9925 4.73384 16.2705 5.58946 16.2705 6.66708L16.2687 11.9381Z" fill="white" style="fill: white"/>
</svg>
