<svg width="24" height="20" viewBox="0 0 24 20" xmlns="http://www.w3.org/2000/svg">
    <path d="M23.707 19.12C23.3919 19.4301 22.994 19.6581 22.5505 19.7675L22.5331 19.7708C22.162 19.8412 21.785 19.8762 21.4073 19.8753C20.4686 19.8767 19.5424 19.6605 18.7014 19.2435L18.737 19.2593C15.1184 17.6676 15.9176 13.6344 17.5051 10.8539C17.9818 10.0191 18.4518 9.17768 18.9252 8.33375C19.2974 7.67054 20.1032 6.54722 19.7874 5.73396C19.4558 4.88091 18.5712 4.87594 17.9901 5.59469C17.445 6.34508 16.9812 7.15126 16.6065 7.99965L16.5733 8.08421C16.153 8.96131 14.0531 13.5706 14.0531 13.5706C13.6163 14.4743 13.0252 15.2949 12.3064 15.9955L12.3047 15.9971C11.9802 16.2578 11.5761 16.3994 11.1599 16.3984C10.7943 16.3984 10.4544 16.2914 10.1684 16.1074L10.1758 16.1115C9.96401 15.9613 9.80403 15.749 9.71791 15.5041C9.63179 15.2591 9.62378 14.9934 9.69499 14.7437L9.6925 14.7528C10.1294 12.2475 13.9296 6.4179 11.3091 6.00671C10.3043 5.8492 10.0316 6.9667 9.72235 7.68048C9.21002 8.85934 8.81955 10.0863 8.27241 11.251C7.6576 12.5388 7.18343 13.889 6.85811 15.2784L6.82993 15.4185C6.56464 16.5675 6.22392 18.0307 4.91656 18.3805C1.33523 19.3372 0.249226 16.9745 0.249226 16.9737C-0.335227 15.1167 0.218553 13.4421 0.779794 11.6539C1.21503 10.2728 1.47451 8.84773 2.02497 7.5039C3.00735 5.10806 3.98641 0.107458 7.52961 0.427457C8.49833 0.57214 9.42632 0.916857 10.2546 1.43968L10.2256 1.42227C10.9352 1.83595 11.4757 2.05729 12.3022 1.61129C13.1064 1.17854 13.4745 0.371913 14.4328 0.0950229C15.4591 -0.201764 16.1348 0.236784 16.9024 0.855227C17.9785 1.7174 18.0962 1.32942 18.9841 1.10227C19.4828 0.966328 19.9975 0.898288 20.5144 0.899994C20.8212 0.899994 21.1221 0.923206 21.4156 0.968802L21.3824 0.964657C25.5358 1.67595 22.8904 6.97831 21.8997 9.10887C21.2547 10.495 18.1774 16.0693 20.9049 16.8179C21.7273 17.0433 22.7876 16.9405 23.4732 17.5308C24.1679 18.1294 24.0991 18.6947 23.707 19.1184V19.12Z"/>
</svg>
