<svg width="20" height="21" viewBox="0 0 20 21" xmlns="http://www.w3.org/2000/svg">
<path d="M0 10.9045V18.0303C0 19.1303 0.895833 20.022 2.00083 20.022C2.26304 20.0227 2.52281 19.9717 2.76531 19.8719C3.0078 19.7722 3.22828 19.6257 3.41416 19.4407C3.60003 19.2558 3.74765 19.036 3.8486 18.794C3.94955 18.5521 4.00184 18.2925 4.0025 18.0303V7.13867C3.8875 9.23867 2.14 10.9045 0 10.9045Z"/>
<path d="M0 10.945C1.02209 10.9462 2.00587 10.5561 2.74929 9.85464C3.49271 9.15322 3.93936 8.19377 3.9975 7.17333V5.30333C3.99772 5.0411 4.04961 4.78147 4.15022 4.5393C4.25083 4.29713 4.39817 4.07716 4.58383 3.89196C4.7695 3.70677 4.98983 3.55997 5.23226 3.45997C5.47468 3.35997 5.73443 3.30873 5.99667 3.30917C6.52607 3.30872 7.03398 3.51855 7.40872 3.8925C7.78345 4.26646 7.99434 4.77393 7.995 5.30333V13.1017C7.99522 13.3639 8.04712 13.6234 8.14774 13.8656C8.24835 14.1077 8.39571 14.3276 8.58138 14.5127C8.76706 14.6979 8.9874 14.8446 9.22982 14.9445C9.47224 15.0444 9.73197 15.0955 9.99417 15.095C10.2562 15.0954 10.5158 15.0442 10.7581 14.9443C11.0003 14.8444 11.2205 14.6978 11.4061 14.5127C11.5917 14.3277 11.739 14.1079 11.8396 13.866C11.9402 13.624 11.9922 13.3646 11.9925 13.1025V7.855C11.9925 3.51583 15.5175 0 19.8675 0H0V10.9442V10.945Z"/>
<path d="M19.8805 0.0195313C15.5139 0.0195313 11.9739 3.53036 11.9739 7.86203V10.3037C11.975 10.0413 12.0277 9.78163 12.1292 9.5396C12.2306 9.29757 12.3787 9.07789 12.5651 8.8931C12.7514 8.70831 12.9723 8.56203 13.2152 8.46262C13.458 8.3632 13.7181 8.3126 13.9805 8.3137C15.0889 8.3137 15.988 9.20453 15.988 10.3037V11.317C15.989 11.5795 16.0417 11.8392 16.1431 12.0813C16.2445 12.3233 16.3926 12.5431 16.579 12.7279C16.7653 12.9127 16.9863 13.059 17.2292 13.1583C17.4721 13.2577 17.7323 13.3082 17.9947 13.307C18.5248 13.3088 19.0339 13.1 19.41 12.7265C19.7861 12.353 19.9986 11.8454 20.0005 11.3154V0.0228646C19.9606 0.0211287 19.9206 0.0200174 19.8805 0.0195312V0.0195313Z"/>
</svg>
