<svg width="20" height="20" viewBox="0 0 20 20" xmlns="http://www.w3.org/2000/svg">
<path d="M17.4288 8.61362L15.3063 10.7769C14.939 13.5728 12.6124 15.7157 9.7757 15.7157C6.69407 15.7157 4.20427 13.1646 4.20427 10.0014C4.20427 6.85852 6.69407 4.28709 9.7757 4.28709C12.6533 4.28709 15.0206 6.51158 15.3267 9.38913L17.4288 7.22586L19.4288 9.28709C19.0818 4.14423 14.8982 0.0830078 9.7757 0.0830078C4.42876 0.0830078 0.102234 4.53199 0.102234 10.0014C0.102234 15.4708 4.42876 19.9197 9.7757 19.9197C14.8982 19.9197 19.1022 15.8381 19.4288 10.6544L17.4288 8.61362Z"/>
</svg>
