<svg width="24" height="24" viewBox="0 0 24 24" xmlns="http://www.w3.org/2000/svg">
<path fill-rule="evenodd" clip-rule="evenodd" d="M11.9535 1.00852e-05C9.59648 0.00613284 7.29412 0.710776 5.33737 2.0249C3.38063 3.33903 1.85731 5.20367 0.959892 7.38322C0.0624753 9.56277 -0.168765 11.9594 0.29539 14.2703C0.759544 16.5813 1.89826 18.7027 3.56767 20.3667C5.23707 22.0307 7.36224 23.1626 9.67465 23.6192C11.9871 24.0759 14.383 23.8369 16.5596 22.9324C18.7362 22.0279 20.5959 20.4985 21.9037 18.5375C23.2114 16.5765 23.9086 14.2719 23.9071 11.9148C23.9009 8.75001 22.6383 5.71714 20.3968 3.4829C18.1553 1.24865 15.1184 -0.00410074 11.9535 1.00852e-05V1.00852e-05ZM11.9535 22.5987C9.84282 22.5936 7.78095 21.9631 6.02836 20.7868C4.27577 19.6106 2.91106 17.9413 2.10662 15.9899C1.30218 14.0385 1.09408 11.8924 1.50861 9.82281C1.92314 7.75319 2.94171 5.85283 4.43566 4.36177C5.92961 2.8707 7.83193 1.8558 9.90235 1.44527C11.9728 1.03473 14.1184 1.24697 16.0683 2.05518C18.0181 2.86339 19.6848 4.23131 20.8576 5.98617C22.0305 7.74103 22.657 9.80411 22.6581 11.9148C22.654 14.7502 21.524 17.4679 19.5167 19.4704C17.5093 21.4729 14.7889 22.5963 11.9535 22.5935V22.5987Z"/>
<path d="M16.911 11.1456V10.1727C16.9104 9.59516 16.7941 9.02353 16.569 8.49164C16.3438 7.95975 16.0143 7.47838 15.6 7.07597C14.7625 6.248 13.6319 5.78426 12.4542 5.78565H11.6542C10.4774 5.78494 9.34785 6.24863 8.51097 7.07597C8.09652 7.47815 7.76713 7.95954 7.54237 8.49152C7.31761 9.0235 7.20206 9.59523 7.20259 10.1727V11.1456L6.65033 12.1418V13.5766C6.65131 14.2181 6.78058 14.8529 7.03054 15.4437C7.2805 16.0344 7.64609 16.5692 8.10581 17.0166C9.04207 17.9347 10.3016 18.4482 11.6129 18.4463H12.5032C13.8112 18.4466 15.0669 17.9332 16 17.0166C16.4605 16.5697 16.8268 16.0351 17.0773 15.4442C17.3277 14.8534 17.4572 14.2183 17.4581 13.5766V12.1418L16.911 11.1456ZM12.5755 15.5482V16.6966C12.5761 16.7808 12.5554 16.8638 12.5152 16.9378C12.475 17.0118 12.4168 17.0745 12.3458 17.1198H12.129C12.1034 17.1237 12.0773 17.1237 12.0516 17.1198H12C11.9786 17.1221 11.9569 17.1221 11.9355 17.1198H11.8374C11.7651 17.0734 11.7055 17.0097 11.6641 16.9345C11.6226 16.8592 11.6006 16.7748 11.6 16.6889V15.5482C11.3009 15.4321 11.0521 15.2145 10.8972 14.9335C10.7424 14.6525 10.6912 14.326 10.7527 14.011C10.8142 13.6961 10.9845 13.4129 11.2337 13.2108C11.483 13.0087 11.7953 12.9007 12.1161 12.9056H12.1445C12.4653 12.9007 12.7777 13.0087 13.0269 13.2108C13.2762 13.4129 13.4465 13.6961 13.508 14.011C13.5695 14.326 13.5183 14.6525 13.3634 14.9335C13.2085 15.2145 12.9598 15.4321 12.6606 15.5482H12.5755ZM14.9213 11.1766H9.18968V10.1727C9.19032 9.8536 9.2548 9.53781 9.37934 9.24397C9.50388 8.95013 9.68595 8.68418 9.91484 8.46178C10.3776 8.00274 11.0024 7.74413 11.6542 7.74178H12.4542C13.1061 7.74385 13.7309 8.0025 14.1936 8.46178C14.422 8.68453 14.6037 8.95055 14.7282 9.24431C14.8528 9.53807 14.9175 9.85369 14.9187 10.1727L14.9213 11.1766Z"/>
</svg>
