<svg width="24" height="24" viewBox="0 0 24 24" fill="none" xmlns="http://www.w3.org/2000/svg">
    <path d="M15.3343 16.3459L17.3148 14.3646C17.5816 14.1011 17.9191 13.9207 18.2863 13.8453C18.6536 13.7699 19.0349 13.8029 19.3838 13.9401L21.7975 14.9042C22.1501 15.0474 22.4525 15.2918 22.6665 15.6066C22.8805 15.9214 22.9965 16.2925 23 16.6732V21.0958C22.9979 21.3548 22.9435 21.6107 22.84 21.848C22.7365 22.0854 22.5861 22.2994 22.3977 22.477C22.2094 22.6547 21.9871 22.7924 21.7441 22.8819C21.5012 22.9713 21.2426 23.0107 20.9841 22.9975C4.07008 21.945 0.657213 7.61574 0.0117748 2.13173C-0.0181869 1.86242 0.00918831 1.58982 0.0920994 1.33186C0.17501 1.07391 0.311578 0.836431 0.492819 0.635064C0.674059 0.433698 0.895864 0.273003 1.14364 0.163552C1.39142 0.0541004 1.65956 -0.00162677 1.93041 3.61494e-05H6.20091C6.582 0.00116461 6.95403 0.116322 7.26915 0.330695C7.58428 0.545069 7.8281 0.848856 7.96924 1.20298L8.93297 3.61772C9.07466 3.9654 9.11081 4.34713 9.03691 4.71524C8.963 5.08335 8.78231 5.42151 8.51742 5.68749L6.53689 7.66882C6.53689 7.66882 7.67746 15.3907 15.3343 16.3459Z" fill="black"/>
</svg>
