<svg width="20" height="20" viewBox="0 0 20 20" xmlns="http://www.w3.org/2000/svg">
<path d="M14.0071 8.78348C14.0071 6.41741 13.6165 4.65216 12.8353 3.48772C12.054 2.32329 10.8263 1.74107 9.15222 1.74107C7.50044 1.74107 6.28764 2.32515 5.51383 3.4933C4.74002 4.66146 4.35311 6.42485 4.35311 8.78348C4.35311 11.1347 4.74002 12.8888 5.51383 14.0458C6.28764 15.2028 7.50044 15.7813 9.15222 15.7813C9.70282 15.7813 10.1902 15.718 10.6143 15.5915C10.4506 15.2716 10.3055 15 10.179 14.7768C10.0525 14.5536 9.88883 14.3118 9.68794 14.0513C9.48704 13.7909 9.28801 13.5807 9.09084 13.4208C8.89367 13.2608 8.65929 13.1269 8.38771 13.019C8.11614 12.9111 7.82782 12.8571 7.52276 12.8571C7.1805 12.8571 6.8866 12.9167 6.64106 13.0357L6.09419 11.9531C6.87544 11.276 7.90222 10.9375 9.17454 10.9375C10.1567 10.9375 10.9584 11.1384 11.5797 11.5402C12.201 11.942 12.7609 12.5186 13.2594 13.2701C13.7579 12.1615 14.0071 10.6659 14.0071 8.78348ZM18.3598 15.8371H19.6656C19.6879 16.0379 19.6805 16.2872 19.6433 16.5848C19.6061 16.8824 19.5075 17.2359 19.3475 17.6451C19.1876 18.0543 18.9718 18.4282 18.7002 18.7667C18.4286 19.1053 18.0306 19.3955 17.506 19.6373C16.9815 19.8791 16.3769 20 15.6924 20C15.1641 20 14.6786 19.9293 14.2359 19.7879C13.7932 19.6466 13.4007 19.4382 13.0585 19.1629C12.7162 18.8876 12.4223 18.5975 12.1768 18.2924C11.9312 17.9874 11.6857 17.6302 11.4402 17.221C10.7184 17.4219 9.95579 17.5223 9.15222 17.5223C8.03615 17.5223 6.94798 17.3065 5.88771 16.875C4.82745 16.4435 3.88622 15.8538 3.06405 15.106C2.24188 14.3583 1.57968 13.4319 1.07744 12.327C0.575213 11.2221 0.324097 10.0409 0.324097 8.78348C0.324097 7.5186 0.575213 6.32999 1.07744 5.21763C1.57968 4.10528 2.24374 3.17336 3.06963 2.42188C3.89553 1.67039 4.83861 1.07887 5.89887 0.647321C6.95914 0.215774 8.04359 0 9.15222 0C10.0525 0 10.9398 0.133929 11.8141 0.401786C12.6883 0.669643 13.4956 1.06399 14.2359 1.58482C14.9763 2.10565 15.631 2.71763 16.2002 3.42076C16.7694 4.12388 17.214 4.93862 17.5339 5.86496C17.8539 6.79129 18.0138 7.76414 18.0138 8.78348C18.0138 10.1972 17.7144 11.49 17.1154 12.6618C16.5164 13.8337 15.7036 14.8177 14.6768 15.6138C15.0265 16.1347 15.3743 16.5309 15.7203 16.8025C16.0663 17.074 16.455 17.2098 16.8866 17.2098C17.3405 17.2098 17.6902 17.0703 17.9357 16.7913C18.1812 16.5123 18.3226 16.1942 18.3598 15.8371Z"/>
</svg>
