<svg width="20" height="20" viewBox="0 0 20 20" xmlns="http://www.w3.org/2000/svg">
<path fill-rule="evenodd" clip-rule="evenodd" d="M20 10C20 15.5225 15.5225 20 10 20C4.4775 20 0 15.5225 0 10C0 4.4775 4.4775 0 10 0C15.5225 0 20 4.4775 20 10ZM16.4067 9.215C16.5683 9.44583 16.66 9.71833 16.67 10C16.6744 10.2756 16.6006 10.5467 16.4573 10.7821C16.3139 11.0175 16.1068 11.2074 15.86 11.33C15.8717 11.4767 15.8717 11.6233 15.86 11.77C15.86 14.01 13.25 15.83 10.03 15.83C6.81 15.83 4.2 14.01 4.2 11.77C4.18874 11.6235 4.18874 11.4765 4.2 11.33C4.00931 11.2407 3.84021 11.1112 3.70432 10.9504C3.56844 10.7896 3.46899 10.6012 3.41281 10.3983C3.35663 10.1954 3.34506 9.98273 3.37889 9.77491C3.41272 9.5671 3.49115 9.36907 3.60878 9.19445C3.72641 9.01983 3.88046 8.87274 4.06034 8.76332C4.24022 8.65389 4.44166 8.58471 4.65082 8.56053C4.85997 8.53635 5.07189 8.55775 5.27199 8.62326C5.47209 8.68876 5.65563 8.79682 5.81 8.94C6.96227 8.15853 8.31788 7.73099 9.71 7.71L10.45 4.24C10.4583 4.19983 10.4745 4.16171 10.4977 4.12784C10.5208 4.09398 10.5505 4.06504 10.5849 4.04272C10.6193 4.0204 10.6578 4.00513 10.6982 3.99779C10.7385 3.99046 10.7799 3.99121 10.82 4L13.27 4.49C13.3896 4.28444 13.5786 4.12825 13.8031 4.04948C14.0275 3.9707 14.2726 3.9745 14.4945 4.06019C14.7164 4.14587 14.9005 4.30784 15.0137 4.51701C15.1269 4.72617 15.1619 4.96885 15.1123 5.20147C15.0627 5.4341 14.9319 5.64143 14.7432 5.78626C14.5545 5.9311 14.3204 6.00394 14.0829 5.99172C13.8453 5.9795 13.6199 5.88301 13.4471 5.71958C13.2743 5.55615 13.1654 5.33648 13.14 5.1L11 4.65L10.35 7.77C11.7252 7.7995 13.0624 8.22671 14.2 9C14.3519 8.85399 14.5335 8.7426 14.7325 8.67347C14.9315 8.60435 15.1431 8.57913 15.3528 8.59956C15.5625 8.61999 15.7653 8.68558 15.9472 8.79182C16.1291 8.89805 16.2858 9.04242 16.4067 9.215V9.215ZM6.83833 10.4442C6.76534 10.5534 6.71457 10.6759 6.68893 10.8047C6.66329 10.9336 6.66328 11.0662 6.68889 11.195C6.74062 11.4553 6.89359 11.6843 7.11417 11.8317C7.33474 11.9791 7.60484 12.0328 7.86504 11.9811C7.99388 11.9555 8.11642 11.9048 8.22565 11.8318C8.33488 11.7588 8.42867 11.665 8.50167 11.5558C8.64908 11.3353 8.70284 11.0652 8.65111 10.805C8.59938 10.5447 8.44641 10.3157 8.22583 10.1683C8.00526 10.0209 7.73516 9.96716 7.47496 10.0189C7.21475 10.0706 6.98575 10.2236 6.83833 10.4442ZM10.01 14.52C10.8975 14.5567 11.7708 14.325 12.48 13.79C12.533 13.7383 12.5634 13.6676 12.5643 13.5935C12.5652 13.5195 12.5367 13.448 12.485 13.395C12.4594 13.3687 12.4289 13.3478 12.3952 13.3333C12.3614 13.3188 12.3252 13.3112 12.2885 13.3107C12.2145 13.3098 12.143 13.3383 12.09 13.39C11.4831 13.8254 10.7458 14.0406 10 14C9.25512 14.0333 8.52123 13.811 7.92 13.37C7.86819 13.3275 7.80241 13.3057 7.73546 13.309C7.66852 13.3123 7.60519 13.3404 7.55779 13.3878C7.51039 13.4352 7.48232 13.4985 7.47903 13.5655C7.47575 13.6324 7.49748 13.6982 7.54 13.75C8.24948 14.2847 9.12238 14.5568 10.01 14.52V14.52ZM11.7442 11.8717C11.9092 11.9817 12.0925 12.08 12.29 12.08C12.4256 12.0816 12.5602 12.0555 12.6854 12.0034C12.8106 11.9514 12.924 11.8743 13.0185 11.777C13.1129 11.6797 13.1866 11.5642 13.235 11.4375C13.2835 11.3108 13.3056 11.1755 13.3 11.04C13.2999 10.8673 13.2551 10.6975 13.1699 10.5472C13.0848 10.397 12.9621 10.2713 12.8139 10.1825C12.6658 10.0938 12.4971 10.0449 12.3244 10.0407C12.1517 10.0365 11.9809 10.077 11.8286 10.1585C11.6762 10.2399 11.5476 10.3594 11.4552 10.5053C11.3628 10.6513 11.3097 10.8186 11.3012 10.9912C11.2927 11.1637 11.329 11.3355 11.4067 11.4898C11.4843 11.6441 11.6006 11.7757 11.7442 11.8717V11.8717Z"/>
</svg>
