<svg width="26" height="26" viewBox="0 0 26 26" fill="none" xmlns="http://www.w3.org/2000/svg">
    <path d="M25.1418 11.1L22.3501 10.2667C22.1571 9.59277 21.8916 8.94175 21.5584 8.32501L22.9251 5.76667C22.9764 5.6701 22.9952 5.55958 22.9786 5.45149C22.9621 5.3434 22.9112 5.24352 22.8334 5.16667L20.8418 3.16667C20.7649 3.0889 20.665 3.03797 20.5569 3.02146C20.4489 3.00495 20.3383 3.02372 20.2418 3.07501L17.7001 4.43334C17.0773 4.08389 16.4177 3.80441 15.7334 3.60001L14.9001 0.841672C14.8649 0.740019 14.7983 0.652171 14.7099 0.590774C14.6216 0.529376 14.516 0.497595 14.4084 0.500006H11.5918C11.4835 0.500509 11.3783 0.535534 11.2914 0.599983C11.2045 0.664432 11.1404 0.754941 11.1084 0.858339L10.2751 3.60834C9.58511 3.81165 8.9199 4.09115 8.29176 4.44167L5.79176 3.09167C5.6952 3.04039 5.58467 3.02161 5.47658 3.03813C5.3685 3.05464 5.26862 3.10556 5.19176 3.18334L3.16676 5.15834C3.08899 5.23519 3.03807 5.33507 3.02155 5.44316C3.00504 5.55124 3.02382 5.66177 3.0751 5.75834L4.4251 8.25834C4.07515 8.88383 3.79566 9.54622 3.59176 10.2333L0.833431 11.0667C0.730034 11.0986 0.639524 11.1627 0.575075 11.2496C0.510626 11.3366 0.475601 11.4418 0.475098 11.55V14.3667C0.475601 14.4749 0.510626 14.5801 0.575075 14.667C0.639524 14.754 0.730034 14.8181 0.833431 14.85L3.60843 15.6833C3.81455 16.359 4.09399 17.0101 4.44176 17.625L3.0751 20.2417C3.02382 20.3382 3.00504 20.4488 3.02155 20.5569C3.03807 20.6649 3.08899 20.7648 3.16676 20.8417L5.15843 22.8333C5.23528 22.9111 5.33516 22.962 5.44325 22.9786C5.55133 22.9951 5.66186 22.9763 5.75843 22.925L8.33343 21.55C8.94257 21.8787 9.58511 22.1413 10.2501 22.3333L11.0834 25.1417C11.1154 25.2451 11.1795 25.3356 11.2664 25.4C11.3533 25.4645 11.4586 25.4995 11.5668 25.5H14.3834C14.4916 25.4995 14.5969 25.4645 14.6838 25.4C14.7707 25.3356 14.8348 25.2451 14.8668 25.1417L15.7001 22.325C16.3594 22.132 16.9963 21.8694 17.6001 21.5417L20.1918 22.925C20.2883 22.9763 20.3989 22.9951 20.5069 22.9786C20.615 22.962 20.7149 22.9111 20.7918 22.8333L22.7834 20.8417C22.8612 20.7648 22.9121 20.6649 22.9286 20.5569C22.9452 20.4488 22.9264 20.3382 22.8751 20.2417L21.4918 17.6583C21.8229 17.0523 22.0883 16.4125 22.2834 15.75L25.0918 14.9167C25.1952 14.8847 25.2857 14.8206 25.3501 14.7337C25.4146 14.6468 25.4496 14.5416 25.4501 14.4333V11.5917C25.455 11.488 25.4281 11.3854 25.373 11.2975C25.3179 11.2096 25.2372 11.1407 25.1418 11.1V11.1ZM13.0001 17.5833C12.0936 17.5833 11.2075 17.3145 10.4537 16.8109C9.70001 16.3073 9.11255 15.5915 8.76565 14.754C8.41875 13.9165 8.32798 12.9949 8.50483 12.1058C8.68168 11.2168 9.1182 10.4001 9.75919 9.7591C10.4002 9.11811 11.2169 8.68159 12.1059 8.50474C12.995 8.32789 13.9166 8.41866 14.7541 8.76556C15.5916 9.11246 16.3074 9.69992 16.811 10.4536C17.3146 11.2074 17.5834 12.0935 17.5834 13C17.5834 14.2156 17.1005 15.3814 16.241 16.2409C15.3815 17.1005 14.2157 17.5833 13.0001 17.5833V17.5833Z" fill="#C1C1C1"/>
</svg>
