<svg width="24" height="24" viewBox="0 0 24 24" xmlns="http://www.w3.org/2000/svg">
	<path d="M12.012 2.59821C6.79346 2.59821 2.55896 6.49671 2.55896 11.3095C2.55896 14.3252 3.77771 16.6105 5.71496 18.0827H5.71121L5.94596 21.1217V21.1292C5.94596 21.145 5.94596 21.1562 5.94971 21.172V21.1795C5.96133 21.2507 5.99801 21.3155 6.05315 21.3621C6.10829 21.4087 6.17826 21.4341 6.25046 21.4337C6.30146 21.4337 6.34796 21.418 6.39521 21.3985L6.40271 21.391L9.30146 19.7192C10.1527 19.9142 11.067 20.0162 12.0127 20.0162C17.2312 20.0162 21.462 16.1177 21.462 11.305C21.462 6.49671 17.2312 2.59821 12.009 2.59821H12.012ZM10.3905 0.718711C10.9232 0.653232 11.4594 0.619423 11.9962 0.617461C12.375 0.617461 12.7462 0.636961 13.1137 0.668461L13.1722 0.0549607C12.2174 -0.0341658 11.2556 -0.0158008 10.305 0.109711L10.3912 0.723211L10.3905 0.718711ZM14.1877 0.812461C15.102 0.980461 15.9727 1.24971 16.797 1.60971L17.0512 1.04346C16.1688 0.658735 15.2446 0.378094 14.2972 0.207211L14.1877 0.812461ZM23.3557 11.371C23.3405 12.2693 23.2038 13.1614 22.9492 14.023L23.5387 14.1985C23.808 13.2962 23.9565 12.3467 23.9722 11.3665L23.3557 11.371ZM6.74621 1.81296C7.572 1.41704 8.43936 1.11442 9.33221 0.910711L9.19571 0.309211C8.56646 0.450211 7.94546 0.637711 7.34396 0.879211C7.04696 0.992461 6.75821 1.12146 6.47696 1.25796L6.74621 1.81296ZM20.3947 3.21471C19.6883 2.56533 18.9068 2.00283 18.0667 1.53921L17.754 2.08221C18.5582 2.52097 19.306 3.05617 19.9807 3.67596L20.3947 3.21471ZM15.1522 22.051C16.0843 21.8146 16.9851 21.4684 17.8357 21.0197L17.523 20.4887C16.7224 20.9079 15.8753 21.2316 14.9992 21.4532L15.1522 22.051ZM3.67571 4.00446C4.31604 3.36143 5.03232 2.79878 5.80871 2.32896L5.48021 1.80171C4.78155 2.22269 4.12942 2.71644 3.53471 3.27471C3.43346 3.36846 3.33521 3.46596 3.23396 3.56346L3.67571 4.00446ZM23.1562 15.2852L22.59 15.0505C22.2389 15.882 21.7835 16.6656 21.2347 17.3822L21.7305 17.7497C22.3091 16.9932 22.7871 16.1648 23.1525 15.2852H23.1562ZM20.7262 4.43346C21.33 5.10786 21.8458 5.85608 22.2615 6.66021L22.8165 6.38646C22.3776 5.53063 21.8301 4.73505 21.1875 4.01946L20.7225 4.43346H20.7262ZM23.2815 7.43796L22.7115 7.68021C23.0242 8.50821 23.235 9.38346 23.3167 10.2895L23.9302 10.231C23.8438 9.27449 23.6255 8.33458 23.2815 7.43796V7.43796ZM6.38696 22.8482L5.41796 23.2742L5.08571 22.2505L4.49996 22.438L4.93721 23.7857C4.96871 23.8675 5.02721 23.938 5.10521 23.9732C5.14421 23.9927 5.18696 24.0002 5.23046 24.0002C5.27396 24.0002 5.31671 23.9927 5.35571 23.9732L6.63671 23.4107L6.38696 22.8482ZM10.2112 21.6565C10.1332 21.6407 10.0507 21.6295 9.97271 21.6137L9.50771 21.5357C9.44941 21.5274 9.38996 21.5355 9.33596 21.559L7.38296 22.4102L7.65671 22.9652L9.50021 22.1642L9.87146 22.2227C9.93821 22.2385 10.0125 22.246 10.0785 22.2617L10.2112 21.6565ZM13.9372 21.676C13.3042 21.7817 12.6562 21.832 11.9955 21.832C11.7217 21.832 11.4682 21.8162 11.2222 21.793L11.2027 22.4102C11.4662 22.4356 11.7307 22.4486 11.9955 22.4492C12.6907 22.4492 13.3785 22.3907 14.0422 22.2812L13.9372 21.676ZM1.51571 7.11771C1.88842 6.29057 2.36773 5.51575 2.94146 4.81296L2.47271 4.40646C1.86502 5.14628 1.35811 5.9634 0.96521 6.83646L0.95321 6.85596L1.51571 7.11771ZM20.5312 18.211C19.9112 18.8655 19.2164 19.445 18.4612 19.9375L18.801 20.4535C19.6013 19.9329 20.337 19.3191 20.9925 18.625L20.5312 18.211ZM0.96896 14.551C0.78146 13.7537 0.67571 12.8755 0.64871 11.8787H0.03146C0.06296 12.949 0.17621 13.8865 0.37496 14.7227L0.96896 14.551ZM0.53921 7.92621C0.242019 8.83619 0.0699428 9.78236 0.02771 10.7387L0.64496 10.7702C0.68396 9.84471 0.85196 8.95371 1.12946 8.10621L0.53921 7.92621ZM4.73846 21.184L4.14896 19.3712C4.1292 19.3123 4.09239 19.2606 4.04321 19.2227C3.80846 19.039 3.59396 18.8552 3.38321 18.664L2.96096 19.1095C3.15221 19.297 3.36746 19.4725 3.59021 19.6525L4.14896 21.367L4.73846 21.184ZM2.63246 17.8945C2.04273 17.2117 1.58337 16.4264 1.27721 15.5777L0.70271 15.808C0.74546 15.9137 0.78446 16.0225 0.82796 16.1282C1.15798 16.92 1.61163 17.6544 2.17196 18.304L2.63246 17.8945Z"/>
</svg>
