<svg width="24" height="15" viewBox="0 0 24 15" xmlns="http://www.w3.org/2000/svg">
    <g clip-path="url(#clip0)">
        <path d="M1.17488 7.44949C1.12573 7.44949 1.08137 7.49503 1.07538 7.54776L0.842798 9.7011L1.07538 11.8053C1.08137 11.864 1.12573 11.9036 1.17488 11.9036C1.22404 11.9036 1.2648 11.864 1.27559 11.8053L1.52855 9.7011L1.2588 7.54776C1.2588 7.49263 1.21444 7.44949 1.17009 7.44949H1.17488ZM0.270942 8.27752C0.2098 8.27752 0.179829 8.31347 0.165443 8.37218L0 9.7011L0.165443 11.0096C0.165443 11.0648 0.2098 11.1031 0.255357 11.1031C0.302113 11.1031 0.342874 11.0576 0.359658 10.9989L0.570657 9.68073L0.359658 8.34821C0.359658 8.2871 0.3153 8.25715 0.269743 8.25715L0.270942 8.27752ZM2.0992 7.02889C2.03686 7.02889 1.97932 7.07563 1.97932 7.13314L1.76832 9.6963L1.9937 12.154C1.9937 12.2127 2.03806 12.2739 2.11239 12.2739C2.17473 12.2739 2.21909 12.2127 2.23467 12.154L2.48763 9.68073L2.23467 7.13314C2.21909 7.07443 2.17233 7.01332 2.11239 7.01332L2.0992 7.02889ZM3.05949 6.92344C2.98396 6.92344 2.92282 6.98455 2.90843 7.05885L2.71542 9.6963L2.92762 12.2403C2.942 12.3158 3.00075 12.3769 3.07388 12.3769C3.1506 12.3769 3.20935 12.3158 3.22373 12.2283L3.4647 9.6963L3.22373 7.07563C3.22405 7.05802 3.22084 7.04052 3.21428 7.02416C3.20772 7.00782 3.19795 6.99295 3.18555 6.98043C3.17314 6.96793 3.15835 6.95803 3.14206 6.95133C3.12576 6.94462 3.10828 6.94125 3.09066 6.94141L3.05949 6.92344ZM4.21279 7.28413C4.21233 7.26378 4.20782 7.24372 4.19953 7.22513C4.19123 7.20654 4.17931 7.18979 4.16447 7.17584C4.14963 7.1619 4.13216 7.15104 4.11308 7.14393C4.094 7.1368 4.0737 7.13354 4.05335 7.13434C4.01193 7.13332 3.97172 7.14834 3.94111 7.17625C3.9105 7.20416 3.89187 7.24281 3.8891 7.28413L3.67091 9.71188L3.87352 12.2739C3.87335 12.2946 3.87735 12.3152 3.88526 12.3344C3.89317 12.3535 3.90484 12.371 3.91958 12.3856C3.93432 12.4002 3.95184 12.4118 3.97111 12.4195C3.99037 12.4273 4.011 12.4311 4.03177 12.4308C4.10609 12.4308 4.17923 12.3649 4.17923 12.2727L4.40581 9.70949L4.17923 7.26975L4.21279 7.28413ZM5.02082 5.57535C4.97393 5.57717 4.92949 5.59676 4.89654 5.63015C4.86358 5.66353 4.84458 5.70821 4.84339 5.7551L4.63239 9.70949L4.81942 12.2727C4.81942 12.3649 4.89854 12.4368 4.99924 12.4368C5.09276 12.4368 5.17308 12.3481 5.17907 12.2571L5.38768 9.6963L5.18027 5.72634C5.17188 5.62089 5.09156 5.5442 5.00044 5.5442L5.02082 5.57535ZM5.95953 4.6311C5.90759 4.63326 5.85822 4.65429 5.82069 4.69025C5.78316 4.72621 5.76006 4.77464 5.75573 4.82642L5.5759 9.6951L5.74134 12.2415C5.74134 12.3613 5.83125 12.45 5.93675 12.45C6.03986 12.45 6.12977 12.3613 6.14536 12.2415L6.33957 9.6951L6.14655 4.8396C6.13097 4.71977 6.04105 4.6299 5.93675 4.6299L5.95953 4.6311ZM6.92701 4.18414C6.80473 4.18414 6.71601 4.2716 6.70163 4.39144L6.53498 9.66395L6.70163 12.1827C6.71601 12.3026 6.80473 12.408 6.92701 12.408C6.9861 12.4062 7.04225 12.3818 7.08394 12.34C7.12563 12.2981 7.14969 12.2418 7.1512 12.1827L7.34661 9.66395L7.15 4.39144C7.15 4.2716 7.0457 4.16615 6.92461 4.16615L6.92701 4.18414ZM8.16903 4.21169C8.16952 4.18025 8.16368 4.14902 8.15186 4.11987C8.14004 4.09072 8.12249 4.06423 8.10023 4.04199C8.07798 4.01975 8.05149 4.00221 8.02233 3.9904C7.99316 3.97858 7.96192 3.97274 7.93046 3.97323C7.86734 3.97443 7.8071 3.99987 7.76224 4.04427C7.71737 4.08867 7.69132 4.14862 7.68949 4.21169L7.53963 9.64957L7.68829 12.1528C7.70627 12.2858 7.80937 12.3912 7.94484 12.3912C8.08031 12.3912 8.18581 12.2858 8.18581 12.1528L8.34886 9.64957L8.18581 4.19732L8.16903 4.21169ZM8.91832 4.07869C8.78285 4.07869 8.66296 4.19851 8.66296 4.33153L8.5131 9.65077L8.66296 12.1229C8.66296 12.2727 8.78285 12.3781 8.91832 12.3781C8.98775 12.3759 9.05354 12.3465 9.10153 12.2964C9.14951 12.2461 9.17585 12.1791 9.17487 12.1097L9.32473 9.63639L9.15689 4.33033C9.15689 4.18414 9.03701 4.0607 8.88715 4.0607L8.91832 4.07869ZM9.89179 4.22728C9.85443 4.22712 9.81742 4.23435 9.78287 4.24857C9.74833 4.26278 9.71694 4.2837 9.69053 4.3101C9.66411 4.3365 9.64319 4.36787 9.62897 4.4024C9.61474 4.43693 9.6075 4.47393 9.60766 4.51127L9.50456 9.65196L9.64003 12.1241C9.64003 12.2727 9.75992 12.4008 9.92296 12.4008C10.0728 12.4008 10.1951 12.2811 10.2071 12.1169L10.3282 9.67473L10.1939 4.564C10.1819 4.39982 10.0584 4.2788 9.90977 4.2788L9.89179 4.22728ZM11.0942 3.33693C11.0437 3.30737 10.9861 3.29204 10.9276 3.2926C10.8677 3.2926 10.8077 3.30818 10.7634 3.33693C10.7182 3.36297 10.6807 3.40031 10.6544 3.44528C10.6281 3.49026 10.614 3.5413 10.6135 3.59337V3.65328L10.5104 9.6975L10.6255 12.1456V12.154C10.6327 12.2139 10.6543 12.2882 10.6974 12.3338C10.7574 12.3948 10.8413 12.4368 10.9324 12.4368C11.0105 12.4326 11.0847 12.4012 11.1422 12.3481C11.1716 12.3186 11.1948 12.2834 11.2104 12.2447C11.2261 12.206 11.2339 12.1645 11.2333 12.1229L11.2489 11.882L11.3652 9.67953L11.2297 3.59817C11.229 3.55051 11.2165 3.50376 11.1933 3.46214C11.1701 3.42052 11.1369 3.38532 11.0966 3.3597L11.0942 3.33693ZM12.0977 2.78931C12.0792 2.76844 12.0562 2.752 12.0305 2.74121C12.0047 2.73042 11.9769 2.72556 11.949 2.727C11.8745 2.7243 11.8012 2.7462 11.7404 2.78931C11.704 2.81824 11.6744 2.85481 11.6537 2.89643C11.633 2.93805 11.6217 2.9837 11.6205 3.03018V3.05773L11.4839 9.66395L11.5594 10.879L11.6217 12.063C11.6237 12.15 11.6601 12.2328 11.723 12.293C11.786 12.3532 11.8703 12.386 11.9574 12.3841C12.0445 12.3821 12.1273 12.3457 12.1876 12.2829C12.2479 12.2199 12.2806 12.1356 12.2787 12.0486L12.4286 9.63639L12.2787 3.00261C12.2774 2.94612 12.2615 2.89093 12.2325 2.84242C12.2035 2.79391 12.1624 2.75373 12.1133 2.7258L12.0977 2.78931ZM21.0472 6.50044C20.6444 6.50044 20.2523 6.58672 19.9095 6.73171C19.8367 5.92831 19.5779 5.15283 19.1537 4.46661C18.7294 3.78039 18.1512 3.20223 17.4648 2.77784C16.7785 2.35345 16.0028 2.09448 15.199 2.02139C14.3952 1.9483 13.5855 2.06311 12.8338 2.35673C12.6084 2.4466 12.5617 2.53767 12.5485 2.71742V12.0785C12.5536 12.166 12.5895 12.2489 12.6498 12.3125C12.7101 12.376 12.791 12.4163 12.8782 12.426H21.0628C21.4482 12.4295 21.8306 12.3564 22.1876 12.211C22.5446 12.0657 22.8691 11.8508 23.1424 11.579C23.4156 11.3072 23.6322 10.9839 23.7794 10.6278C23.9266 10.2717 24.0016 9.88989 24 9.50457C24.0019 8.72393 23.6935 7.97448 23.1427 7.42102C22.5919 6.86755 21.8438 6.55539 21.0628 6.55317"/>
    </g>
    <defs>
        <clipPath id="clip0">
            <rect width="24" height="15" fill="white"/>
        </clipPath>
    </defs>
</svg>
