<svg width="24" height="11" viewBox="0 0 24 11" xmlns="http://www.w3.org/2000/svg">
    <path d="M1.17488 5.45205C1.12573 5.45205 1.08137 5.49761 1.07538 5.55036L0.842798 7.70471L1.07538 9.80991C1.08137 9.86865 1.12573 9.90821 1.17488 9.90821C1.22404 9.90821 1.2648 9.86865 1.27559 9.80991L1.52855 7.70471L1.2588 5.55036C1.2588 5.49521 1.21444 5.45205 1.17009 5.45205H1.17488ZM0.270942 6.28046C0.2098 6.28046 0.179829 6.31643 0.165443 6.37517L0 7.70471L0.165443 9.01386C0.165443 9.06901 0.2098 9.10737 0.255357 9.10737C0.302113 9.10737 0.342874 9.06182 0.359658 9.00307L0.570657 7.68433L0.359658 6.35119C0.359658 6.29005 0.3153 6.26008 0.269743 6.26008L0.270942 6.28046ZM2.0992 5.03125C2.03686 5.03125 1.97932 5.07801 1.97932 5.13555L1.76832 7.69991L1.9937 10.1588C1.9937 10.2175 2.03806 10.2787 2.11239 10.2787C2.17473 10.2787 2.21909 10.2175 2.23467 10.1588L2.48763 7.68433L2.23467 5.13555C2.21909 5.07681 2.17233 5.01567 2.11239 5.01567L2.0992 5.03125ZM3.05949 4.92575C2.98396 4.92575 2.92282 4.98689 2.90843 5.06122L2.71542 7.69991L2.92762 10.2451C2.942 10.3206 3.00075 10.3818 3.07388 10.3818C3.1506 10.3818 3.20935 10.3206 3.22373 10.2331L3.4647 7.69991L3.22373 5.07801C3.22405 5.06039 3.22084 5.04288 3.21428 5.02652C3.20772 5.01017 3.19795 4.99529 3.18555 4.98277C3.17314 4.97026 3.15835 4.96035 3.14206 4.95365C3.12576 4.94694 3.10828 4.94357 3.09066 4.94373L3.05949 4.92575V4.92575ZM4.21279 5.28661C4.21233 5.26625 4.20782 5.24618 4.19953 5.22758C4.19123 5.20898 4.17931 5.19222 4.16447 5.17827C4.14963 5.16432 4.13216 5.15346 4.11308 5.14634C4.094 5.13921 4.0737 5.13595 4.05335 5.13675C4.01193 5.13573 3.97172 5.15075 3.94111 5.17868C3.9105 5.2066 3.89187 5.24527 3.8891 5.28661L3.67091 7.7155L3.87352 10.2787C3.87335 10.2994 3.87735 10.32 3.88526 10.3392C3.89317 10.3584 3.90484 10.3759 3.91958 10.3905C3.93432 10.4051 3.95184 10.4167 3.97111 10.4244C3.99037 10.4322 4.011 10.436 4.03177 10.4357C4.10609 10.4357 4.17923 10.3698 4.17923 10.2775L4.40581 7.7131L4.17923 5.27222L4.21279 5.28661V5.28661ZM5.02082 3.57703C4.97393 3.57885 4.92949 3.59845 4.89654 3.63185C4.86358 3.66525 4.84458 3.70995 4.84339 3.75686L4.63239 7.7131L4.81942 10.2775C4.81942 10.3698 4.89854 10.4417 4.99924 10.4417C5.09276 10.4417 5.17308 10.353 5.17907 10.2619L5.38768 7.69991L5.18027 3.72809C5.17188 3.62259 5.09156 3.54586 5.00044 3.54586L5.02082 3.57703ZM5.95953 2.63233C5.90759 2.63449 5.85822 2.65553 5.82069 2.69151C5.78316 2.72749 5.76006 2.77594 5.75573 2.82775L5.5759 7.69871L5.74134 10.2463C5.74134 10.3662 5.83125 10.4549 5.93675 10.4549C6.03986 10.4549 6.12977 10.3662 6.14536 10.2463L6.33957 7.69871L6.14655 2.84093C6.13097 2.72105 6.04105 2.63113 5.93675 2.63113L5.95953 2.63233ZM6.92701 2.18516C6.80473 2.18516 6.71601 2.27267 6.70163 2.39256L6.53498 7.66754L6.70163 10.1875C6.71601 10.3074 6.80473 10.4129 6.92701 10.4129C6.9861 10.4111 7.04225 10.3867 7.08394 10.3448C7.12563 10.3029 7.14969 10.2466 7.1512 10.1875L7.34661 7.66754L7.15 2.39256C7.15 2.27267 7.0457 2.16717 6.92461 2.16717L6.92701 2.18516ZM8.16903 2.21273C8.16952 2.18127 8.16368 2.15003 8.15186 2.12086C8.14004 2.0917 8.12249 2.0652 8.10023 2.04295C8.07798 2.0207 8.05149 2.00315 8.02233 1.99133C7.99316 1.97951 7.96192 1.97367 7.93046 1.97416C7.86734 1.97536 7.8071 2.00081 7.76224 2.04523C7.71737 2.08965 7.69132 2.14963 7.68949 2.21273L7.53963 7.65316L7.68829 10.1576C7.70627 10.2906 7.80937 10.3961 7.94484 10.3961C8.08031 10.3961 8.18581 10.2906 8.18581 10.1576L8.34886 7.65316L8.18581 2.19835L8.16903 2.21273V2.21273ZM8.91832 2.07966C8.78285 2.07966 8.66296 2.19954 8.66296 2.33262L8.5131 7.65436L8.66296 10.1276C8.66296 10.2775 8.78285 10.383 8.91832 10.383C8.98775 10.3808 9.05354 10.3514 9.10153 10.3012C9.14951 10.2509 9.17585 10.1839 9.17487 10.1144L9.32473 7.63997L9.15689 2.33142C9.15689 2.18516 9.03701 2.06167 8.88715 2.06167L8.91832 2.07966ZM9.89179 2.22832C9.85443 2.22816 9.81742 2.2354 9.78287 2.24962C9.74833 2.26384 9.71694 2.28477 9.69053 2.31118C9.66411 2.3376 9.64319 2.36898 9.62897 2.40353C9.61474 2.43807 9.6075 2.47509 9.60766 2.51245L9.50456 7.65555L9.64003 10.1288C9.64003 10.2775 9.75992 10.4057 9.92296 10.4057C10.0728 10.4057 10.1951 10.2859 10.2071 10.1216L10.3282 7.67833L10.1939 2.5652C10.1819 2.40095 10.0584 2.27987 9.90977 2.27987L9.89179 2.22832ZM11.0942 1.33756C11.0437 1.30798 10.9861 1.29265 10.9276 1.29321C10.8677 1.29321 10.8077 1.30879 10.7634 1.33756C10.7182 1.36361 10.6807 1.40097 10.6544 1.44596C10.6281 1.49096 10.614 1.54202 10.6135 1.59412V1.65406L10.5104 7.70111L10.6255 10.1504V10.1588C10.6327 10.2187 10.6543 10.293 10.6974 10.3386C10.7574 10.3997 10.8413 10.4417 10.9324 10.4417C11.0105 10.4375 11.0847 10.4061 11.1422 10.353C11.1716 10.3234 11.1948 10.2882 11.2104 10.2495C11.2261 10.2108 11.2339 10.1693 11.2333 10.1276L11.2489 9.88663L11.3652 7.68313L11.2297 1.59892C11.229 1.55124 11.2165 1.50447 11.1933 1.46283C11.1701 1.42119 11.1369 1.38597 11.0966 1.36034L11.0942 1.33756V1.33756ZM12.0977 0.789684C12.0792 0.768797 12.0562 0.752348 12.0305 0.741555C12.0047 0.730763 11.9769 0.725905 11.949 0.727344C11.8745 0.724644 11.8012 0.746552 11.7404 0.789684C11.704 0.818627 11.6744 0.855209 11.6537 0.896847C11.633 0.938485 11.6217 0.984163 11.6205 1.03066V1.05823L11.4839 7.66754L11.5594 8.88319L11.6217 10.0677C11.6237 10.1548 11.6601 10.2376 11.723 10.2978C11.786 10.3581 11.8703 10.3909 11.9574 10.389C12.0445 10.387 12.1273 10.3506 12.1876 10.2877C12.2479 10.2247 12.2806 10.1404 12.2787 10.0533L12.4286 7.63997L12.2787 1.00308C12.2774 0.946563 12.2615 0.891348 12.2325 0.842815C12.2035 0.794282 12.1624 0.754087 12.1133 0.726145L12.0977 0.789684ZM21.0472 4.50255C20.6444 4.50255 20.2523 4.58887 19.9095 4.73393C19.8367 3.93015 19.5779 3.15431 19.1537 2.46777C18.7294 1.78122 18.1512 1.20279 17.4648 0.7782C16.7785 0.353614 16.0028 0.0945195 15.199 0.0213991C14.3952 -0.0517214 13.5855 0.0631382 12.8338 0.356897C12.6084 0.446811 12.5617 0.537925 12.5485 0.717753V10.0832C12.5536 10.1708 12.5895 10.2537 12.6498 10.3173C12.7101 10.3809 12.791 10.4212 12.8782 10.4309H21.0628C21.4482 10.4344 21.8306 10.3613 22.1876 10.2158C22.5446 10.0704 22.8691 9.85544 23.1424 9.58352C23.4156 9.3116 23.6322 8.98812 23.7794 8.63184C23.9266 8.27556 24.0016 7.89359 24 7.50809C24.0019 6.72708 23.6935 5.97728 23.1427 5.42356C22.5919 4.86983 21.8438 4.55753 21.0628 4.5553"/>
</svg>
