<svg width="25" height="25" viewBox="0 0 25 25" xmlns="http://www.w3.org/2000/svg">
    <path d="M12.625 0.625C5.99558 0.625 0.625 5.99635 0.625 12.625C0.625 19.2536 5.99635 24.625 12.625 24.625C19.2544 24.625 24.625 19.2536 24.625 12.625C24.625 5.99635 19.2536 0.625 12.625 0.625ZM18.5189 8.84616L16.5494 18.1272C16.4038 18.7853 16.0121 18.9447 15.4655 18.6351L12.4655 16.424L11.0185 17.8175C10.8591 17.977 10.7236 18.1125 10.4139 18.1125L10.6268 15.0591L16.1863 10.0361C16.4286 9.82319 16.1329 9.70242 15.8131 9.91532L8.94216 14.2407L5.98087 13.3164C5.33752 13.1135 5.32281 12.673 6.11635 12.3633L17.6859 7.90165C18.2232 7.7081 18.6924 8.03248 18.5182 8.84539L18.5189 8.84616Z"/>
</svg>
