<svg width="25" height="28" viewBox="0 0 25 28" xmlns="http://www.w3.org/2000/svg">
    <path d="M13.2378 0.0233087C14.7443 0 16.2421 0.0138126 17.7381 0C17.8288 1.76196 18.4624 3.55673 19.7522 4.80245C21.0393 6.07925 22.86 6.66369 24.6315 6.86139V11.4964C22.9714 11.442 21.3035 11.0967 19.7971 10.3819C19.141 10.0849 18.5298 9.70246 17.9315 9.31139C17.9238 12.6747 17.9453 16.0338 17.9099 19.3833C17.8202 20.9925 17.2892 22.5939 16.3534 23.9199C14.8479 26.1273 12.2347 27.5664 9.55075 27.6113C7.90447 27.7054 6.25991 27.2565 4.85708 26.4295C2.53225 25.0586 0.896326 22.549 0.65806 19.8555C0.628048 19.2851 0.623439 18.7136 0.644247 18.1428C0.851435 15.9526 1.93486 13.8574 3.61654 12.4322C5.52267 10.7721 8.19281 9.9813 10.6929 10.4492C10.7162 12.1542 10.648 13.8574 10.648 15.5624C9.50586 15.1929 8.17122 15.2965 7.17327 15.9898C6.44314 16.4707 5.89138 17.1784 5.60295 18.0038C5.36469 18.5874 5.43289 19.2357 5.4467 19.8555C5.72036 21.7444 7.53671 23.332 9.47565 23.1602C10.7611 23.1464 11.993 22.4005 12.6629 21.3085C12.8796 20.926 13.1222 20.535 13.1351 20.0852C13.2482 18.0262 13.2033 15.9759 13.2171 13.917C13.2266 9.27686 13.2033 4.64965 13.2387 0.024172L13.2378 0.0233087Z"/>
</svg>
