<svg width="24" height="10" viewBox="0 0 24 10" xmlns="http://www.w3.org/2000/svg">
    <path d="M4.47564 3.48403H3.58303V6.70363H4.47564V3.48403ZM3.24358 3.48403H2.31325L1.65951 5.92389H1.64694L0.942902 3.48403H0L1.14405 6.70363H2.14982L3.24358 3.48403ZM4.36249 2.13834C4.2703 2.04611 4.16134 2 4.03562 2C3.89314 2 3.77999 2.04611 3.69618 2.13834C3.60398 2.23057 3.55788 2.34376 3.55788 2.47791C3.55788 2.61206 3.60398 2.72525 3.69618 2.81748C3.77999 2.91809 3.89314 2.9684 4.03562 2.9684C4.16134 2.9684 4.2703 2.91809 4.36249 2.81748C4.45469 2.72525 4.50079 2.61206 4.50079 2.47791C4.50079 2.34376 4.45469 2.23057 4.36249 2.13834ZM6.51231 3.32054C6.03457 3.32054 5.65322 3.47984 5.36826 3.79845C5.08329 4.10867 4.94081 4.52789 4.94081 5.0561C4.94081 5.58432 5.08329 6.00354 5.36826 6.31376C5.6616 6.62398 6.05553 6.77909 6.55003 6.77909C6.97748 6.77909 7.32949 6.6659 7.60608 6.43953C7.82399 6.24669 7.96647 6.01192 8.03353 5.73524V5.69751H7.21634V5.71009C7.17444 5.8107 7.1032 5.89873 7.00262 5.97419C6.88528 6.05804 6.7428 6.09996 6.57517 6.09996C6.34049 6.09996 6.16029 6.02869 6.03457 5.88616C5.90047 5.73524 5.82923 5.52563 5.82085 5.25733H8.07124V4.99322C8.07124 4.49016 7.92876 4.08771 7.64379 3.78587C7.35883 3.47565 6.98167 3.32054 6.51231 3.32054ZM6.07229 4.17574C6.18963 4.05836 6.34049 3.99967 6.52488 3.99967C6.92719 3.99967 7.15767 4.23444 7.21634 4.70396H5.83342C5.85857 4.47758 5.93819 4.30151 6.07229 4.17574ZM13.2383 3.48403H12.3332L11.8303 5.87358H11.8051L11.2268 3.48403H10.3468L9.75589 5.87358H9.74332L9.22787 3.48403H8.33525L9.20272 6.70363H10.1708L10.7617 4.43985H10.7868L11.3903 6.70363H12.3457L13.2383 3.48403ZM16.5071 3.79845C16.2556 3.48823 15.9246 3.33731 15.5139 3.34569C15.0194 3.33731 14.6757 3.54692 14.483 3.97452H14.4578V2.07546H13.5526V6.70363H14.4578V6.15027H14.483C14.6757 6.5611 15.0152 6.77071 15.5013 6.77909C15.9204 6.77909 16.2556 6.62398 16.5071 6.31376C16.7501 6.00354 16.8717 5.58432 16.8717 5.0561C16.8717 4.51112 16.7501 4.0919 16.5071 3.79845ZM15.2122 4.08771C15.4301 4.08771 15.6103 4.17575 15.7528 4.35182C15.8785 4.5195 15.9413 4.75427 15.9413 5.0561C15.9413 5.35794 15.8785 5.5969 15.7528 5.77297C15.6103 5.93227 15.4301 6.01612 15.2122 6.0245C14.9859 6.01612 14.8057 5.93227 14.6716 5.77297C14.5291 5.58851 14.4578 5.34956 14.4578 5.0561C14.4578 4.75427 14.5291 4.5195 14.6716 4.35182C14.8057 4.17575 14.9859 4.08771 15.2122 4.08771ZM20.2913 6.71621L20.2787 3.48403H19.3986L19.4112 5.33279C19.4112 5.5424 19.3525 5.71847 19.2352 5.861C19.1179 5.98677 18.9586 6.04965 18.7575 6.04965C18.3552 6.04965 18.154 5.82747 18.154 5.3831L18.1414 3.48403H17.2614L17.274 5.57174C17.274 5.94904 17.3704 6.24249 17.5631 6.4521C17.7643 6.6701 18.045 6.77909 18.4054 6.77909C18.8832 6.77909 19.2142 6.57787 19.3986 6.17542H19.4112V6.71621H20.2913ZM23.208 3.78587C23.1074 3.66011 22.9733 3.56369 22.8057 3.49661C22.5961 3.40438 22.3698 3.37085 22.1268 3.396C21.5987 3.45469 21.2216 3.72299 20.9953 4.2009C20.8277 4.59496 20.7816 4.99322 20.857 5.39567C20.8989 5.71428 21.0162 5.99515 21.209 6.2383C21.4856 6.56529 21.8292 6.72879 22.2399 6.72879C22.5584 6.74556 22.8182 6.6659 23.0194 6.48983L23.1828 6.31376V6.6659C23.1912 6.84198 23.1493 6.99709 23.0571 7.13124C22.9649 7.26539 22.8392 7.35342 22.6799 7.39535C22.4369 7.4708 22.1771 7.475 21.9005 7.40792L21.3724 7.24443L21.1336 7.86068L21.1839 7.91098C21.8041 8.18767 22.3992 8.23378 22.9691 8.04933C23.6564 7.83133 24 7.34923 24 6.60302V3.48403H23.2331V3.81102L23.208 3.78587ZM21.7245 5.55917C21.6658 5.40825 21.6365 5.24056 21.6365 5.0561C21.6365 4.77104 21.7161 4.53208 21.8753 4.33924C22.043 4.15478 22.2567 4.07513 22.5165 4.10029C22.7931 4.12544 22.99 4.26378 23.1074 4.51531C23.275 4.87584 23.2792 5.24475 23.12 5.62205C22.9775 5.92389 22.7428 6.06642 22.4159 6.04965C22.0807 6.04965 21.8502 5.88616 21.7245 5.55917Z"/>
</svg>
