<svg width="24" height="21" viewBox="0 0 24 21" xmlns="http://www.w3.org/2000/svg">
	<path d="M22.9892 5.39199C22.8906 7.52845 21.3951 10.4538 18.5026 14.1679C15.5116 18.0465 12.9807 19.9857 10.91 19.9857C9.62808 19.9857 8.54341 18.8024 7.65595 16.4359L5.88103 9.92787C5.22365 7.56132 4.51697 6.37805 3.76099 6.37805C3.59664 6.37805 3.02144 6.72317 2.03537 7.41342L1 6.08223C2.08467 5.12903 3.1529 4.17584 4.2047 3.22265C5.65092 1.97364 6.73559 1.31627 7.45871 1.25053C9.16788 1.08619 10.2197 2.25302 10.6141 4.75104C11.0414 7.44629 11.3372 9.1226 11.5016 9.77997C11.9946 12.0151 12.5369 13.1326 13.1286 13.1326C13.5887 13.1326 14.279 12.4095 15.1993 10.9633C16.1196 9.51704 16.6127 8.41594 16.6784 7.65995C16.8099 6.41094 16.3168 5.78643 15.1993 5.78643C14.6734 5.78643 14.1311 5.90147 13.5723 6.13156C14.657 2.6146 16.7277 0.905422 19.7845 1.00403C22.0524 1.06978 23.1207 2.53244 22.9892 5.39202L22.9892 5.39199Z"/>
</svg>
