<svg width="20" height="20" viewBox="0 0 20 20" xmlns="http://www.w3.org/2000/svg">
<path d="M10.0009 20C4.48603 20 0 15.514 0 10C0 4.48603 4.48603 0 10.0009 0C15.5157 0 20.0009 4.48603 20.0009 10C20.0009 15.514 15.5149 20 10.0009 20ZM10.0009 0.54973C4.79007 0.54973 0.550608 4.78919 0.550608 10C0.550608 15.2108 4.78919 19.4503 10.0009 19.4503C15.2126 19.4503 19.4511 15.2108 19.4511 10C19.4511 4.78919 15.2113 0.54973 10.0009 0.54973V0.54973Z"/>
<path d="M5.43589 12.2281C5.357 12.2281 5.28134 12.1968 5.22555 12.141C5.16977 12.0852 5.13843 12.0096 5.13843 11.9307V7.60478C5.14138 7.52792 5.17399 7.4552 5.22941 7.40187C5.28483 7.34853 5.35875 7.31874 5.43567 7.31874C5.51258 7.31874 5.58651 7.34853 5.64193 7.40187C5.69735 7.4552 5.72996 7.52792 5.73291 7.60478V11.9302C5.73297 11.9693 5.72533 12.008 5.71043 12.0441C5.69554 12.0802 5.67368 12.113 5.64609 12.1407C5.61851 12.1684 5.58575 12.1903 5.54969 12.2053C5.51362 12.2203 5.47495 12.2281 5.43589 12.2281ZM7.71948 13.4096C7.64059 13.4096 7.56493 13.3783 7.50915 13.3225C7.45336 13.2667 7.42202 13.1911 7.42202 13.1122V8.78628C7.42498 8.70943 7.45759 8.6367 7.51301 8.58337C7.56843 8.53004 7.64235 8.50025 7.71926 8.50025C7.79618 8.50025 7.8701 8.53004 7.92552 8.58337C7.98094 8.6367 8.01355 8.70943 8.0165 8.78628V13.1122C8.0165 13.191 7.98523 13.2666 7.92954 13.3224C7.87385 13.3781 7.7983 13.4095 7.71948 13.4096ZM10.0009 14.6012C9.92199 14.6012 9.84633 14.5699 9.79055 14.5141C9.73477 14.4583 9.70343 14.3827 9.70343 14.3038V9.97788C9.70189 9.93788 9.70844 9.89799 9.72268 9.86058C9.73693 9.82318 9.75858 9.78904 9.78633 9.7602C9.81408 9.73136 9.84737 9.70841 9.8842 9.69274C9.92103 9.67707 9.96064 9.669 10.0007 9.669C10.0407 9.669 10.0803 9.67707 10.1171 9.69274C10.154 9.70841 10.1872 9.73136 10.215 9.7602C10.2428 9.78904 10.2644 9.82318 10.2786 9.86058C10.2929 9.89799 10.2994 9.93788 10.2979 9.97788V14.3038C10.2979 14.3826 10.2666 14.4582 10.2109 14.5139C10.1552 14.5697 10.0797 14.6011 10.0009 14.6012ZM12.2823 13.4175C12.2034 13.4175 12.1277 13.3862 12.072 13.3304C12.0162 13.2746 11.9848 13.199 11.9848 13.1201V8.79418C11.9878 8.71732 12.0204 8.6446 12.0758 8.59127C12.1312 8.53793 12.2052 8.50814 12.2821 8.50814C12.359 8.50814 12.4329 8.53793 12.4883 8.59127C12.5437 8.6446 12.5764 8.71732 12.5793 8.79418V13.1201C12.5793 13.1989 12.548 13.2745 12.4923 13.3303C12.4367 13.386 12.3611 13.4174 12.2823 13.4175ZM14.5637 12.2281C14.4848 12.2281 14.4091 12.1968 14.3534 12.141C14.2976 12.0852 14.2662 12.0096 14.2662 11.9307V7.60478C14.2647 7.56479 14.2712 7.52489 14.2855 7.48749C14.2997 7.45008 14.3214 7.41594 14.3491 7.3871C14.3769 7.35826 14.4102 7.33532 14.447 7.31965C14.4838 7.30398 14.5234 7.2959 14.5635 7.2959C14.6035 7.2959 14.6431 7.30398 14.6799 7.31965C14.7168 7.33532 14.7501 7.35826 14.7778 7.3871C14.8056 7.41594 14.8272 7.45008 14.8415 7.48749C14.8557 7.52489 14.8622 7.56479 14.8607 7.60478V11.9302C14.8608 11.9693 14.8531 12.008 14.8382 12.0441C14.8233 12.0802 14.8015 12.113 14.7739 12.1407C14.7463 12.1684 14.7136 12.1903 14.6775 12.2053C14.6414 12.2203 14.6028 12.2281 14.5637 12.2281Z"/>
</svg>
