<svg width="24" height="25" viewBox="0 0 24 25" xmlns="http://www.w3.org/2000/svg">
    <path fill-rule="evenodd" clip-rule="evenodd" d="M20.5031 3.5048C19.3961 2.3905 18.079 1.50695 16.6281 0.905332C15.1771 0.303713 13.6213 -0.00401475 12.0506 -2.2687e-05C5.46422 -2.2687e-05 0.102496 5.36037 0.0998335 11.9494C0.0998335 14.0552 0.649582 16.1104 1.69451 17.9234L0 24.1144L6.33476 22.4518C8.08703 23.4057 10.0502 23.9059 12.0452 23.9067H12.0506C18.6356 23.9067 23.9973 18.5464 24 11.9574C24.0045 10.3873 23.6978 8.8319 23.0976 7.38107C22.4974 5.93025 21.6156 4.61278 20.5031 3.5048V3.5048ZM12.0506 21.8901H12.0466C10.2676 21.8903 8.52129 21.4117 6.991 20.5044L6.62894 20.2888L2.86988 21.2751L3.8722 17.6106L3.6366 17.2352C2.64197 15.6518 2.11545 13.8193 2.1178 11.9494C2.12046 6.47318 6.57569 2.01794 12.0546 2.01794C13.3594 2.01504 14.6518 2.27096 15.8571 2.77089C17.0623 3.27081 18.1565 4.00482 19.0762 4.93042C20.0008 5.8516 20.7337 6.94691 21.2324 8.15304C21.7312 9.35916 21.9859 10.6522 21.982 11.9574C21.9793 17.4336 17.5241 21.8901 12.0506 21.8901ZM17.4988 14.4505C17.1993 14.3001 15.7324 13.5787 15.4582 13.4788C15.1853 13.379 14.987 13.3297 14.7873 13.6279C14.5877 13.9261 14.0153 14.5983 13.8409 14.798C13.6665 14.9976 13.4922 15.0216 13.194 14.8725C12.8958 14.7234 11.9334 14.4079 10.7927 13.391C9.9048 12.599 9.3058 11.6219 9.13143 11.3224C8.95705 11.0229 9.11279 10.8619 9.26321 10.7128C9.39765 10.5797 9.56138 10.364 9.71046 10.1896C9.85955 10.0153 9.9088 9.89147 10.0086 9.6918C10.1085 9.49214 10.0592 9.31776 9.98334 9.16868C9.9088 9.01826 9.31113 7.54871 9.06221 6.95104C8.82128 6.37201 8.57502 6.44922 8.39133 6.44123C8.20108 6.43345 8.01069 6.4299 7.82028 6.43058C7.66888 6.43444 7.5199 6.46954 7.38269 6.53367C7.24549 6.59781 7.12301 6.6896 7.02295 6.80329C6.74874 7.10279 5.97802 7.82425 5.97802 9.2938C5.97802 10.7634 7.04824 12.1836 7.19732 12.3833C7.34641 12.583 9.30314 15.5979 12.2981 16.8918C13.0116 17.1993 13.568 17.383 14.0006 17.5214C14.7154 17.749 15.3664 17.7157 15.8815 17.6399C16.4552 17.5547 17.6479 16.9184 17.8968 16.2209C18.1457 15.5234 18.1457 14.9257 18.0712 14.8006C17.9966 14.6755 17.7956 14.5996 17.4988 14.4505"/>
</svg>
